<svg xmlns="http://www.w3.org/2000/svg" xmlns:xlink="http://www.w3.org/1999/xlink" version="1.1" id="Capa_1" x="0px" y="0px" viewBox="0 0 512.001 512.001" style="enable-background:new 0 0 512.001 512.001;" xml:space="preserve" width="512" height="512" class=""><g transform="matrix(-1 0 0 1 512.001 0)"><path style="fill:#FFC94E;" d="M114.721,140.134c-0.405,3.38,4.868,8.707,6.531,11.684c2.896,5.186,5.522,10.732,6.287,16.701  c-8.696,0.29,0.938,10.098,3.016,12.788c5.324,6.893,10.544,13.866,15.636,20.933c4.507,6.254,10.571,11.702,13.845,18.785  c1.24,2.681,2.856,6.036,1.566,8.948c-0.462,1.043-8.194,6.201-7.986,6.46c13.398,16.695,23.719,35.861,34.603,54.371  c2.639,4.488,6.055,9.232,9.79,12.956c2.815,2.807,7.301,4.93,9.25,8.523c4.861,8.96-6.699,10.704-8.247,18.516  c4.866,2.912,10.633,4.247,15.656,7.302c15.602,9.487,26.421,22.678,38.878,35.625c2.814,2.925,10.874,8.671,10.32,13.585  c-0.767,6.802-7.186,4.858-0.653,12.885c6.896,8.473,16.503,14.852,25.303,21.183c11.747,8.452,20.091,12.914,34.334,15.95  c11.65,2.483,23.94,2.607,35.871,2.606c15.959-0.002,29.147-5.39,43.283-11.519c8.007-3.472,9.974,1.817,15.182,7.242  c6.523,6.795,14.138,12.859,20.706,19.935c7.393,7.964,15.118,15.253,22.527,23.126c5.204,5.53,10.22,14.319,17.057,17.804  c8.54,4.352,15.811-2.601,21.638-8.739c6.655-7.01,9.626-12.184,5.351-21.332c-3.957-8.468-11.788-14.527-19.216-19.768  c-11.6-8.186-23.047-16.544-35.869-22.85c-5.022-2.47-14.734-5.487-16.606-11.492c-2.189-7.021,5.761-13.996,8.72-19.23  c8.252-14.597,8.319-37.884,5.169-53.833c-4.465-22.598-14.632-42.974-27.647-61.798c-2.707-3.915-10.344-17.578-15.6-18.435  c-7.191-1.173-9.725,10.142-14.173,13.404c-10.703-18.54-16.448-40.48-31.406-56.503c-7.074-7.577-15.216-14.241-24.059-19.52  c-8.778-5.24-7.354,1.896-11.659,9.74c-7.22-5.125-12.272-16.986-18.25-23.927c-7.386-8.576-16.996-17.25-25.769-24.37  c-7.255-5.889-17.542-12.204-27.033-13.618c-9.853-1.469-4.732,7.447-11.048,13.441c-3.276-2.176-6.516-6.855-9.34-9.853  c-4.638-4.923-8.577-10.527-13.428-15.227c-5.991-5.805-43.405-35.795-48.486-17.258c-6.004-2.498-9.533-8.656-15.576-9.699  c-7.284-1.257-10.404,5.278-16.38-0.276c-4.092-3.803-6.215-11.153-8.111-16.202c-4.005-10.666-6.052-22.019-10.09-32.629  c-3.916-10.29-8.794-24.028-17.182-31.621c-5.385-4.875-7.286-2.709-7.992,3.231c-0.986,8.292,1.013,17.658,3.987,25.328  c1.803,4.65,12.476,21.052,7.099,25.18c-3.942,3.026-27.651-33.828-31.314-38.323c-6.128-7.521-12.267-14.05-19.526-20.473  c-3.195-2.827-9.917-10.416-14.841-9.349C27.22,13.033,49.354,42.184,53.377,46.583c4.821,5.271,11.017,10.036,16.506,14.613  c4.199,3.501,10.54,6.619,13.736,11.138c3.846,5.439,0.747,6.448-5.265,3.817c-5.232-2.289-10.011-5.684-15.057-8.299  C47.11,59.465,24.336,48.015,6.402,54.819c1.67,6.876,20.038,14.247,26.099,17.346c21.395,10.938,42.974,21.887,64.154,33.296  c8.778,4.729,18.356,10.269,24.101,18.847c1.689,2.522,6.074,9.149,4.41,12.349c-2.253,4.331-5.105-0.436-8.632,1.222  C115.373,138.424,114.833,139.205,114.721,140.134z" data-original="#FFC94E" class=""></path><g>
	<path style="fill:#F2AE40;" d="M121.04,173.691c5.397,8.381,14.637,14.747,21.095,22.375c6.398,7.557,9.321,17.852,16.02,25.115   c13.26,14.376,37.031,10.248,54.441,13.857c7.099,1.472,22.194,9.279,28.589,4.781c-6.165-20.172-30.014-34.994-49.531-38.355   c-15.737-2.711-30.849-11.083-44.245-19.628C139.755,176.953,130.068,164.084,121.04,173.691z" data-original="#F2AE40" class=""></path>
	<path style="fill:#F2AE40;" d="M157.234,238.105c11.625,21.307,22.97,45.485,40.338,63.064   c11.198,11.335,21.103,8.701,34.557,2.907c16.234-6.991,33.891-13.445,51.002-8.767c8.896,2.432,11.981,0.276,6.328-8.301   c-8.615-13.072-25.943-18.276-40.664-18.867c-10.917-0.438-21.389-0.879-32.066-3.477c-11.555-2.811-20.134-9.707-30.214-15.515   c-7.616-4.388-10.853-10.262-17.16-15.413C165.013,230.19,158.864,230.279,157.234,238.105z" data-original="#F2AE40" class=""></path>
	<path style="fill:#F2AE40;" d="M203.857,333.804c14.807,4.941,30.962,17.109,41.747,28.682   c10.773,11.56,18.105,17.298,35.076,13.199c10.917-2.636,20.793-8.948,31.837-11.392c10.497-2.323,21.296-0.021,31.715-2.104   c10.997-2.199,12.803-6.395,3.802-13.047c-7.598-5.615-16.428-6.823-25.699-7.241c-13.658-0.616-27.06-1.527-40.736-0.87   c-12.167,0.584-24.187,1.297-35.239-4.433c-6.782-3.516-12.941-8.34-20.319-10.613C222.189,324.799,195.85,320.482,203.857,333.804   z" data-original="#F2AE40" class=""></path>
	<path style="fill:#F2AE40;" d="M261.522,396.377c11.13,17.292,34.895,29.162,53.523,36.362c17.106,6.612,34.436,8.491,52.604,6.101   c13.6-1.789,33.045-2.406,43.554-12.47c2.504-2.398,2.652-5.329,4.45-7.737c2.745-3.677,7.871-6.122,11.504-9.206   c8.23-6.986,14.762-15.553,19.241-25.382c2.771-6.08,5.712-18.965-0.365-24.503c-6.144-5.599-19.852,0.624-27.56-1.309   c-17.685-4.434-23.382-27.472-26.537-42.807c-1.538-7.476-0.364-27.238-11.786-19.804c-12.204,7.943-14.712,27.272-13.441,40.323   c1.044,10.718,3.769,22.427,8.286,32.192c2.736,5.914,5.756,7.194,10.446,11.064c4.537,3.743,17.336,19.633,6.002,20.126   c-2.772,0.12-7.723-2.574-10.915-2.884c-4.324-0.421-8.69-0.379-13.025-0.192c-8.238,0.354-16.418,1.529-24.607,2.427   c-11.791,1.294-24.358,4.024-36.094,1.527c-7.092-1.509-13.21-5.262-20.028-7.49C274.709,388.77,268.152,383.394,261.522,396.377z" data-original="#F2AE40" class=""></path>
	<path style="fill:#F2AE40;" d="M329.003,323.375c-10.147,0.525-11.392-11.599-15.818-17.696   c-6.353-8.752-17.402-14.483-24.654-22.624c-9.378-10.528-20.012-20.458-30.671-29.612c-6.707-5.76-9.631-13.851-14.931-20.644   c-6.03-7.729-13.656-14.079-19.44-21.995c-7.045-9.642-14.272-19.941-23.791-27.312c-9.575-7.415-19.541-9.998-24.378-22.366   c-1.871-4.784-4.724-17.21,4.154-16.937c6.979,0.215,15.732,17.074,20.061,21.541c6.801,7.019,26.3,37.247,38.647,32.209   c5.792-2.363,5.025-18.721,14.32-10.906c5.169,4.346,4.736,14.31,7.175,20.148c3.416,8.177,8.218,15.624,12.336,23.447   c5.403,10.263,9.577,20.654,19.703,27.103c18.5,11.78,28.936-15.404,29.406-30.01c16.949,8.029,24.641,20.557,26.468,39.327   c0.864,8.876,0.311,21.011,6.992,27.99c3.531,3.688,9.274,4.316,12.588,7.941c6.382,6.98,1.252,20.042,0.618,28.611   c-0.487,6.578-0.277,13.442,0.443,19.955c0.488,4.411,2.471,8.934-0.091,12.882c-4.419-2.543-9.662-6.573-13.218-10.504   C348.059,346.336,342.549,334.287,329.003,323.375z" data-original="#F2AE40" class=""></path>
	<path style="fill:#F2AE40;" d="M144.352,138.111c-3.98-3.303-4.453-15.895-0.611-19.718c3.938,4.582,8.925,11.394,14.414,14.457   c4.442,2.479,10.917,0.368,13.219,5.261c1.247,2.651-0.212,10.438-3.219,11.531c-4.969,1.806-21.02-8.168-22.576-12.145" data-original="#F2AE40" class=""></path>
	<path style="fill:#F2AE40;" d="M129.015,166.943c-4.643-5.334-10.065-13.643-11.427-20.763c4.38,0.378,8.478,3.966,12.806,5.288   c7.055,2.153,14.781,3.137,21.963,4.878c8.17,1.98,20.199,4.86,20.12,14.796c-5.937-0.336-11.912-3.196-18.132-3.6   C146.892,167.059,137.936,167.408,129.015,166.943z" data-original="#F2AE40" class=""></path>
	<path style="fill:#F2AE40;" d="M439.402,415.87c0.685,3.16,0.073,8.551,0.844,11.218c1.44,4.981,3.98,9.53,7.041,13.687   c6.07,8.245,14.243,14.73,22.045,21.243c6.735,5.623,27.617,20.733,17.345,31.289c-9.08,9.331-24.953-8.401-30.631-14.431   c-6.004-6.375-9.074-14.449-14.811-21.062c-4.403-5.075-9.431-7.214-14.87-10.75c-4.974-3.233-13.453-8.866-15.049-14.947   c-2.441-9.306,21.46-27.303,27.494-17.843C439.074,414.689,439.264,415.234,439.402,415.87z" data-original="#F2AE40" class=""></path>
</g><path d="M486.608,437.764c-9.092-6.72-19.313-12.008-29.113-17.615c-4.343-2.485-8.829-4.87-12.804-7.934  c-2.31-1.78-4.153-4.058-6.454-5.542c14.971-21.446,21.093-49.282,15.841-75.394c-6.292-31.282-30.553-53.865-43.036-82.349  c-1.215-2.772-5.549-3.653-7.937-2.081c-5.283,3.479-8.728,8.7-11.62,14.241c-1.126-3.81-2.714-7.55-4.251-11.175  c-4.038-9.52-9.079-18.488-15.461-26.64c-11.483-14.667-26.957-29.419-44.199-36.984c-3.831-1.681-8.296,0.248-8.412,4.827  c-0.029,1.132-0.087,2.249-0.159,3.36c-1.517-2.626-3.178-5.18-4.871-7.685c-5.536-8.195-11.833-15.893-19.244-22.47  c-7.813-6.934-16.524-12.145-25.953-16.557c-8.841-4.137-16.868-10.379-26.457-12.742c-3.245-0.8-7.676,1.667-7.236,5.512  c0.339,2.959,0.552,5.919,0.674,8.881c-4.907-6.829-11.121-12.54-17.746-17.664c-13.445-10.399-28.827-16.871-43.049-25.889  c-2.312-1.466-6.14-0.516-7.407,2.001c-7.847-7.028-20.644-10.986-28.404-5.957c-0.94,0.609-1.729,1.303-2.412,2.051  c-0.45-1.653-0.907-3.285-1.341-4.883c-2.92-10.743-6.692-21.237-10.519-31.684c-6.98-19.049-14.89-38.511-28.909-53.561  c-1.339-1.438-4.081-1.519-5.406,0c-11.908,13.656,0.607,38.203,6.86,51.709c0.726,1.568,1.472,3.131,2.206,4.697  c-1.97-2.978-4.023-5.902-6.188-8.77c-6.333-8.386-12.623-16.859-19.711-24.631c-6.81-7.468-14.084-14.672-22.209-20.715  c-5.459-4.06-12.629-8.681-19.546-5.532c-1.535,0.699-2.207,2.852-1.783,4.38C35.13,32.16,48.737,46.488,61.667,58.142  c4.476,4.034,9.128,7.878,13.827,11.661C53.211,58.11,28.875,48.119,3.562,49.068c-3.012,0.113-4.817,3.871-2.526,6.099  c8.084,7.862,19.222,11.92,29.029,17.139c12.746,6.783,25.324,13.991,37.684,21.454c11.861,7.162,23.584,14.604,34.983,22.481  c5.96,4.118,11.675,8.274,17.008,13.191c1.179,1.088,2.319,2.148,3.458,3.171c-4.38,0.172-8.742,0.927-13.031,2.434  c-2.538,0.892-4.063,3.28-3.401,5.99c1.794,7.344,7.547,14.209,12.428,19.788c0.66,0.754,2.028,2.249,3.675,3.729  c-1.765,0.314-3.545,0.654-5.349,1.02c-3.073,0.623-4.838,4.88-3.042,7.477c4.65,6.72,10.785,12.178,16.362,18.099  c5.19,5.51,9.505,11.351,13.296,17.881c3.408,5.869,7.587,13.846,13.412,18.568c-2.645,0.359-5.29,0.696-7.955,0.905  c-4.249,0.333-7.822,4.921-5.171,9.01c3.48,5.367,8.132,10.049,12.098,15.074c4.032,5.108,7.802,10.426,11.425,15.83  c4.932,7.356,9.379,15.026,14.385,22.331c4.558,6.651,9.621,13.576,15.928,18.676c1.334,1.079,2.977,2.218,4.744,3.149  c-4.709,3.823-8.833,8.271-11.855,13.502c-1.952,3.378-0.121,7.61,3.545,8.713c18.193,5.473,30.729,21.17,44.31,33.509  c4.696,4.267,12.148,10.739,19.889,14.256c-1.82,0.742-3.595,1.59-5.301,2.648c-2.61,1.619-3.902,5.344-2.118,8.078  c14.164,21.717,33.241,39.989,58.448,47.821c15.24,4.735,31.593,5.435,47.413,4.28c13.409-0.98,27.734-2.238,40.439-6.938  c3.246-1.201,7.23-4.869,10.803-4.873c3.411-0.004,4.846,4.312,6.861,6.64c5.28,6.1,12.234,10.476,17.56,16.53  c7.026,7.987,13.19,16.686,19.8,25.009c5.831,7.342,12.381,16.58,21.642,19.704c15.944,5.379,34.222-11.767,37.154-26.702  C514.833,458.228,498.083,446.246,486.608,437.764z M395.584,278.301c2.57-4.904,4.859-11.762,8.529-16.76  c10.347,20.821,26.374,38.58,34.434,60.487c6.951,18.892,6.481,39.631-0.362,58.482c-3.87,10.661-9.966,20.533-17.822,28.685  c-10.25-15.224-22.563-28.642-37.598-37.898c-4.009-10.736-8.781-21.39-10.488-32.797c-1.864-12.458,1.021-23.658,7.172-34.495  C384.443,295.208,390.889,287.26,395.584,278.301z M330.423,199.966c12.78,7.147,24.023,18.801,32.608,30.004  c5.395,7.04,9.723,14.968,13.428,23.008c3.169,6.876,5.002,14.351,8.667,20.895c-5.103,9.271-11.707,17.645-16.74,26.971  c-9.912,18.368-9.417,38.213-3.021,56.868c-2.972-2.063-6.035-4.043-8.462-6.537c-5.986-6.149-10.866-13.295-16.664-19.624  c-6.444-7.034-13.405-13.777-20.904-19.806c-1.768-3.236-3.832-6.253-5.189-9.736c-1.7-4.366-2.904-8.835-3.461-13.496  c-1.104-9.238-0.724-18.865,1.199-27.971C316.185,240.183,328.931,220.938,330.423,199.966z M247.653,148.668  c5.458,2.38,10.552,5.685,15.897,8.312c9.114,4.479,17.473,9.481,24.87,16.518c6.669,6.344,12.283,13.603,17.316,21.289  c3.417,5.217,6.657,10.615,10.912,15.124c-1.54,6.493-3.686,12.846-6.196,19.365c-4.53,11.765-8.999,23.402-10.587,35.988  c-0.957,7.585-1.162,15.331-0.219,22.933c-5.473-6.562-11.465-12.726-17.135-18.449c-6.321-6.38-14.041-11.172-20.435-17.237  c-4.91-4.659-7.817-13.374-10.145-19.474c-3.231-8.466-4.853-17.454-5.247-26.489C245.838,187.165,249.156,167.946,247.653,148.668z   M178.092,126.051c0.057-2.322,0.23-4.791,0.303-7.27c11.152,5.353,22.11,12.597,31.587,19.895  c5.986,4.609,11.739,9.822,16.246,15.917c5.176,7.001,9.432,14.926,8.978,23.667c-0.586,11.283-1.12,22.62,0.157,33.879  c0.372,3.281,0.925,6.497,1.643,9.663c-3.931-4.632-8.057-9.061-11.702-13.351c-9.785-11.516-20.294-22.484-32.828-31.046  c-0.958-0.654-1.936-1.278-2.922-1.888c-2.778-4.205-6.036-8.003-7.865-12.789c-2.214-5.793-3.142-11.996-3.515-18.153  C177.802,138.407,177.94,132.223,178.092,126.051z M143.991,109.835c4.13-5.275,16.732,5.115,22.852,10.233  c0.055,2.713,0.159,5.422,0.152,8.059c-0.018,6.046,0.059,12.094,0.621,18.112c-1.852-1.366-3.969-2.449-5.583-3.278  c-5.104-2.621-10.445-4.921-15.907-6.704c0.015-3.483-1.057-7.386-1.519-10.182C144.013,122.481,141.471,113.054,143.991,109.835z   M95.611,25.113c10.477,13.841,16.639,30.696,22.318,46.941c3.384,9.68,6.633,19.415,9.438,29.281  c0.797,2.804,1.444,5.663,2.063,8.532c-3.012-5.869-6.217-11.66-8.945-17.528c-4.137-8.9-7.968-17.92-12.195-26.78  C102.707,53.855,94.716,38.899,95.611,25.113z M69.577,54.798C57.776,44.425,45.332,31.892,39.313,16.981  c4.759,1.188,11.381,7.528,13.532,9.436c6.712,5.953,12.889,12.553,18.671,19.406c6.825,8.089,13.083,16.83,19.15,25.489  c0.316,0.452,0.606,0.917,0.914,1.373C84.233,66.691,76.603,60.974,69.577,54.798z M110.742,110.719  c-11.41-8.357-23.523-15.839-35.58-23.217c-12.273-7.509-24.82-14.7-37.699-21.123c-6.962-3.472-14.476-6.239-21.437-9.89  c24.403,2.437,47.351,15.559,67.951,28.02c11.572,6.999,25.059,14.177,33.133,25.332c4.42,6.106,7.888,12.243,12.468,17.703  c0.01,0.035,0.021,0.069,0.03,0.104c0.067,0.244,0.134,0.489,0.202,0.734C124.006,121.977,118.015,116.047,110.742,110.719z   M118.528,142.387c8.561-1.812,18.696,1.345,26.337,4.098c4.853,1.748,9.444,3.947,14.014,6.322  c3.392,1.763,7.041,2.274,9.628,5.328c1.457,1.721,2.757,8.958,4.262,9.476c-5.388-1.856-10.954-3.207-16.56-4.078  c-7.984-1.24-15.439-1.234-22.93-0.473c-0.917-3.839-5.135-7.894-7.142-10.325C123.361,149.374,120.784,146.011,118.528,142.387z   M151.383,198.261c-5.937-9.697-14.129-18.723-22.907-26.4c9.293-2.289,20.986-0.096,29.267,1.831  c11.998,2.792,22.893,7.286,32.748,14.745c10.81,8.182,19.908,18.44,28.523,28.836c4.714,5.687,9.376,12.597,14.8,18.457  c-11.654-5.275-23.965-9.036-36.786-9.971c-8.286-0.604-16.598-0.087-24.884,0.254c-0.148-0.25-0.329-0.48-0.549-0.675  c-4.228-3.751-8.359-6.901-11.512-11.724C156.858,208.682,154.456,203.281,151.383,198.261z M202.129,297.097  c-4.692-5.357-8.64-11.417-12.409-17.446c-4.684-7.492-9.151-15.104-14.115-22.42c-4.386-6.464-9.094-13.803-14.555-19.999  c4.363-0.449,9.036-0.219,12.646-0.335c7.779-0.25,15.557-0.671,23.331-0.061c15.782,1.239,30.934,7.716,44.511,15.579  c13.141,7.609,24.977,17.227,35.45,28.203c3.79,3.972,7.369,8.419,11.037,12.819c-8.137-2.834-16.692-4.226-25.478-3.489  c-13.102,1.098-25.902,4.806-37.934,10.017c-4.063,1.76-8.179,3.771-12.138,6.089C208.37,304.513,204.763,300.105,202.129,297.097z   M240.399,353.781c-10.741-10.37-21.344-21.128-34.84-27.436c8.177-9.349,20.763-15.29,32.06-19.251  c13.887-4.87,29.25-8.239,43.708-3.992c17.998,5.288,33.372,18.338,46.285,31.485c6.922,7.048,12.762,14.935,19.4,22.215  c0.727,0.797,1.482,1.549,2.249,2.283c-16.447-2.399-33.377-0.978-49.123,4.424c-8.016,2.75-15.298,6.681-22.598,10.927  c-0.632,0.368-1.257,0.715-1.883,1.068C261.043,374.451,250.467,363.502,240.399,353.781z M402.12,423.083  c-10.1,5.386-21.109,7.32-32.35,8.76c-14.498,1.857-29.567,2.86-44.074,0.556c-25.776-4.094-45.736-19.208-60.451-39.822  c4.916-1.998,10.156-3.378,14.835-6.002c7.027-3.941,13.724-8.264,21.322-11.069c14.655-5.408,30.683-7.291,46.158-4.926  c14.782,2.26,28.997,8.026,40.477,17.704c9.555,8.056,17.059,18.05,25.348,27.314C409.88,418.427,406.122,420.949,402.12,423.083z   M497.237,478.952c-3.628,5.603-10.087,13.087-17.552,12.187c-7.727-0.931-14.546-11.666-19.029-17.259  c-5.611-7.001-10.845-14.322-16.739-21.093c-4.785-5.496-10.147-9.919-15.698-14.597c-2.829-2.384-5.627-4.803-8.449-7.193  c-0.945-0.8-2.074-1.609-3.161-2.475c5.245-3.686,10.021-7.94,14.297-12.645c1.85,2.722,4.884,4.982,7.63,6.954  c6.151,4.417,13.092,7.893,19.654,11.659c13.315,7.643,28.663,15.198,38.424,27.535  C501.147,467.754,501.165,472.887,497.237,478.952z" data-original="#000000" class="active-path" style="fill:#FFFFFF" data-old_color="#F6F6F6"></path></g> </svg>