<svg width="400" height="400" xmlns="http://www.w3.org/2000/svg">
 <!-- Created with Method Draw - http://github.com/duopixel/Method-Draw/ -->

 <g>
  <title>background</title>
  <rect fill="none" id="canvas_background" height="402" width="402" y="-1" x="-1"/>
  <g display="none" id="canvasGrid">
   <rect fill="url(#gridpattern)" stroke-width="0" y="0" x="0" height="100%" width="100%" id="svg_1"/>
  </g>
 </g>
 <g>
  <title>Layer 1</title>
  <ellipse fill="#ff7f00" stroke-width="0" cx="300" cy="100" id="svg_7" stroke="#000" ry="100" rx="100"/>
  <ellipse fill="#ff7f00" stroke-width="0" cx="100" cy="300" id="svg_8" stroke="#000" ry="100" rx="100"/>
  <ellipse fill="#ff7f00" stroke-width="0" cx="300" cy="300" id="svg_9" stroke="#000" ry="100" rx="100"/>
  <ellipse fill="#ff7f00" stroke-width="0" cx="100" cy="100" id="svg_6" stroke="#000" ry="100" rx="100"/>
  <rect fill="#ff7f00" stroke-width="0" x="0" y="100" width="400" height="200" id="svg_4" stroke="#000"/>
  <rect fill="#ff7f00" stroke-width="0" x="100" y="0" width="200" height="400" id="svg_3" stroke="#000"/>
  <ellipse id="svg_5" cy="191.545909" cx="320.449965" fill-opacity="null" stroke-opacity="null" stroke-width="1.5" fill="#fff" stroke="#000"/>
  <ellipse fill="#ef6700" stroke-width="0" cx="300" cy="100" id="svg_12" stroke="#000" ry="75" rx="75"/>
  <ellipse fill="#ef6700" stroke-width="0" cx="100" cy="100" id="svg_11" stroke="#000" ry="75" rx="75"/>
  <ellipse fill="#ef6700" stroke-width="0" cx="300" cy="300" id="svg_14" stroke="#000" ry="75" rx="75"/>
  <ellipse fill="#ef6700" stroke-width="0" cx="100" cy="300" id="svg_15" stroke="#000" ry="75" rx="75"/>
  <rect fill="#ef6700" stroke-width="0" x="25" y="100" width="350" height="200" id="svg_16" stroke="#000"/>
  <rect fill="#ef6700" stroke-width="0" x="100" y="25" width="200" height="350" id="svg_17" stroke="#000"/>
  <ellipse fill="#ff7f00" stroke-width="0" cx="100" cy="100" id="svg_23" stroke="#000" ry="60" rx="60"/>
  <rect fill="#ff7f00" stroke-width="0" x="100" y="40" width="200" height="320" id="svg_28" stroke="#000"/>
  <rect fill="#ff7f00" stroke-width="0" x="40" y="100" width="320" height="200" id="svg_27" stroke="#000"/>
  <ellipse fill="#ff7f00" stroke-width="0" cx="100" cy="300" id="svg_26" stroke="#000" ry="60" rx="60"/>
  <ellipse fill="#ff7f00" stroke-width="0" cx="300" cy="300" id="svg_25" stroke="#000" ry="60" rx="60"/>
  <ellipse fill="#ff7f00" stroke-width="0" cx="300" cy="100" id="svg_24" stroke="#000" ry="60" rx="60"/>
  <ellipse fill="#ffdab7" stroke-width="0" cx="300" cy="100" id="svg_18" stroke="#000" ry="50" rx="50"/>
  <ellipse fill="#ff7f00" stroke-width="0" cx="287" cy="113" id="svg_19" stroke="#000" ry="65" rx="65"/>
  <ellipse fill="#ffdab7" stroke-width="0" cx="300" cy="300" id="svg_29" stroke="#000" ry="50" rx="50"/>
  <ellipse fill="#ff7f00" stroke-width="0" cx="287" cy="287" id="svg_30" stroke="#000" ry="65" rx="65"/>
  <ellipse stroke="#000" fill="#ef6f00" stroke-width="0" cx="207.500003" cy="208.999999" id="svg_34" ry="138.99999" rx="139.500006"/>
  <ellipse stroke="#000" fill="#ff7f00" stroke-width="0" cx="186.500013" cy="224.500002" id="svg_35" ry="135.499987" rx="133.500016"/>
  <ellipse stroke="#000" fill="#ef6f00" stroke-width="0" cx="140.500003" cy="253.500003" id="svg_32" ry="98.499997" rx="96.499997"/>
  <ellipse stroke="#000" fill="#ff7f00" stroke-width="0" cx="132.500004" cy="259.499997" id="svg_33" ry="100.5" rx="91.499999"/>
  <ellipse fill="#ef6f00" stroke-width="0" cx="118" cy="288" id="svg_31" stroke="#000" ry="50" rx="50"/>
  <g transform="matrix(0.09180875821564864,-0.6444382656413036,0.638355230799593,0.09268362513621956,-83.27197630945794,358.50412593129624) " id="svg_237" stroke="null">
   <path id="svg_218" fill="#DA2F47" d="m114.238824,404.629135c40.55601,4.35117 78.44114,-12.83255 111.7236,-46.95515c39.90893,-40.92184 41.46807,-102.65993 41.46807,-110.55652s93.80103,-24.13329 91.22999,39.48454c-3.55785,88.41399 -61.61304,165.4088 -165.18394,173.06903c-49.61241,3.67183 -80.27362,-7.32826 -94.43919,-18.51851c-22.3021,-17.61821 -6.22094,-38.82114 15.20147,-36.52339" stroke="null"/>
   <g transform="matrix(0.5578314568734621,0,0,0.5311489030966512,-1214.8258542422534,-1128.6688347490856) " id="svg_219" stroke="null">
    <path id="svg_220" fill="#77B255" d="m2639.641082,2599.321322c6.631,-23.09 49.227,-56.898 106.556,-43.979c63.187,14.243 89.399,44.157 89.399,98.662c0,54.519 -53.479,7.27 -60.912,-9.456s-38.403,33.452 -65.462,-19.031c-9.16,-17.751 -81.208,14.275 -69.581,-26.196" stroke="null"/>
    <path id="svg_221" fill="#77B255" d="m2712.425082,2494.108322c16.92,17.246 45.123,40.618 32.783,78.293c-12.355,37.674 18.986,37.036 26.746,14.14c7.731,-22.881 10.065,-72.123 -6.467,-94.112c-16.517,-21.99 -65.862,-11.375 -53.062,1.679" stroke="null"/>
   </g>
   <g transform="matrix(0.5578314568734621,0,0,0.5311489030966512,-1214.8258542422534,-1128.6688347490856) " id="svg_222" stroke="null"/>
   <g transform="matrix(0.5578314568734621,0,0,0.5311489030966512,-1214.8258542422534,-1128.6688347490856) " id="svg_223" stroke="null"/>
   <g transform="matrix(0.5578314568734621,0,0,0.5311489030966512,-1214.8258542422534,-1128.6688347490856) " id="svg_224" stroke="null"/>
   <g transform="matrix(0.5578314568734621,0,0,0.5311489030966512,-1214.8258542422534,-1128.6688347490856) " id="svg_225" stroke="null"/>
   <g transform="matrix(0.5578314568734621,0,0,0.5311489030966512,-1214.8258542422534,-1128.6688347490856) " id="svg_226" stroke="null"/>
   <g transform="matrix(0.5578314568734621,0,0,0.5311489030966512,-1214.8258542422534,-1128.6688347490856) " id="svg_227" stroke="null"/>
   <g transform="matrix(0.5578314568734621,0,0,0.5311489030966512,-1214.8258542422534,-1128.6688347490856) " id="svg_228" stroke="null"/>
   <g transform="matrix(0.5578314568734621,0,0,0.5311489030966512,-1214.8258542422534,-1128.6688347490856) " id="svg_229" stroke="null"/>
   <g transform="matrix(0.5578314568734621,0,0,0.5311489030966512,-1214.8258542422534,-1128.6688347490856) " id="svg_230" stroke="null"/>
   <g transform="matrix(0.5578314568734621,0,0,0.5311489030966512,-1214.8258542422534,-1128.6688347490856) " id="svg_231" stroke="null"/>
   <g transform="matrix(0.5578314568734621,0,0,0.5311489030966512,-1214.8258542422534,-1128.6688347490856) " id="svg_232" stroke="null"/>
   <g transform="matrix(0.5578314568734621,0,0,0.5311489030966512,-1214.8258542422534,-1128.6688347490856) " id="svg_233" stroke="null"/>
   <g transform="matrix(0.5578314568734621,0,0,0.5311489030966512,-1214.8258542422534,-1128.6688347490856) " id="svg_234" stroke="null"/>
   <g transform="matrix(0.5578314568734621,0,0,0.5311489030966512,-1214.8258542422534,-1128.6688347490856) " id="svg_235" stroke="null"/>
   <g transform="matrix(0.5578314568734621,0,0,0.5311489030966512,-1214.8258542422534,-1128.6688347490856) " id="svg_236" stroke="null"/>
  </g>
  <g transform="matrix(-0.07491412755199582,-0.6759172884161373,0.669533022820791,-0.07562846376967873,9.392861941091187,431.797861885058) " id="svg_260" stroke="null">
   <path id="svg_242" fill="#F6C358" d="m387.573433,461.19976c-39.68407,26.14911 -84.1953,41.31771 -129.66591,43.37522c-105.20018,4.82319 -154.7308,-59.79273 -167.09873,-79.01751c-3.10324,-4.84247 -4.72327,-10.85877 -3.94746,-16.84768c0.01992,-0.17248 0.03983,-0.34495 0.12209,-0.54381c0.28227,-1.67604 0.66931,-3.23135 1.20441,-4.76333c3.80026,-11.73128 14.65207,-18.8078 25.65195,-17.21901c58.76501,8.81343 278.46817,27.35846 321.20179,-178.67815l0.37925,0.09536l24.86488,4.3291l15.60885,2.69872c0.64074,1.47009 1.30398,3.01525 2.09192,4.50867c0.17057,0.34191 0.27794,0.71121 0.38617,1.07949c45.47147,124.1814 -31.25233,201.83332 -90.79921,240.98293z" stroke="null"/>
   <path id="svg_243" fill="#FCD462" d="m460.285703,211.92894c14.31093,97.8588 -50.62506,161.31103 -102.52034,195.4112c-39.68407,26.14911 -84.1953,41.3177 -129.66591,43.37522c-68.61416,3.12685 -113.55746,-23.25561 -139.91162,-47.31271c3.80026,-11.73128 14.65207,-18.8078 25.65195,-17.21901c58.76501,8.81343 278.46817,27.35846 321.20179,-178.67816l0.37925,0.09537l24.86488,4.32809z" stroke="null"/>
   <path id="svg_244" fill="#44C4A1" d="m475.911873,214.61447l-40.85298,-7.12319c2.34561,-10.50367 6.41342,-33.68724 1.00786,-64.2243c-0.95677,-5.40453 2.96124,-10.25714 7.60138,-9.30651c4.30159,0.88064 9.30712,1.53807 13.6191,1.12717c4.03491,-0.38451 7.48363,3.40586 7.223,8.13977c-0.85547,15.54702 -0.33422,44.2102 11.40164,71.38705l0,0.00001z" stroke="null"/>
   <g transform="matrix(0.834754026681485,0,0,0.9770753848415572,-1683.6839460727429,-1859.228647245903) " id="svg_245" stroke="null"/>
   <g transform="matrix(0.834754026681485,0,0,0.9770753848415572,-1683.6839460727429,-1859.228647245903) " id="svg_246" stroke="null"/>
   <g transform="matrix(0.834754026681485,0,0,0.9770753848415572,-1683.6839460727429,-1859.228647245903) " id="svg_247" stroke="null"/>
   <g transform="matrix(0.834754026681485,0,0,0.9770753848415572,-1683.6839460727429,-1859.228647245903) " id="svg_248" stroke="null"/>
   <g transform="matrix(0.834754026681485,0,0,0.9770753848415572,-1683.6839460727429,-1859.228647245903) " id="svg_249" stroke="null"/>
   <g transform="matrix(0.834754026681485,0,0,0.9770753848415572,-1683.6839460727429,-1859.228647245903) " id="svg_250" stroke="null"/>
   <g transform="matrix(0.834754026681485,0,0,0.9770753848415572,-1683.6839460727429,-1859.228647245903) " id="svg_251" stroke="null"/>
   <g transform="matrix(0.834754026681485,0,0,0.9770753848415572,-1683.6839460727429,-1859.228647245903) " id="svg_252" stroke="null"/>
   <g transform="matrix(0.834754026681485,0,0,0.9770753848415572,-1683.6839460727429,-1859.228647245903) " id="svg_253" stroke="null"/>
   <g transform="matrix(0.834754026681485,0,0,0.9770753848415572,-1683.6839460727429,-1859.228647245903) " id="svg_254" stroke="null"/>
   <g transform="matrix(0.834754026681485,0,0,0.9770753848415572,-1683.6839460727429,-1859.228647245903) " id="svg_255" stroke="null"/>
   <g transform="matrix(0.834754026681485,0,0,0.9770753848415572,-1683.6839460727429,-1859.228647245903) " id="svg_256" stroke="null"/>
   <g transform="matrix(0.834754026681485,0,0,0.9770753848415572,-1683.6839460727429,-1859.228647245903) " id="svg_257" stroke="null"/>
   <g transform="matrix(0.834754026681485,0,0,0.9770753848415572,-1683.6839460727429,-1859.228647245903) " id="svg_258" stroke="null"/>
   <g transform="matrix(0.834754026681485,0,0,0.9770753848415572,-1683.6839460727429,-1859.228647245903) " id="svg_259" stroke="null"/>
  </g>
  <g id="svg_296" stroke="null">
   <path id="svg_265" fill="#70C449" d="m124.21102,248.367c-9.94742,-3.24337 -19.38092,-0.31693 -25.37741,2.57516l-6.54516,3.90178l0.00038,0.00292c2.15957,2.23158 5.60804,3.77809 9.65141,6.51317c5.82938,0.23738 11.7086,2.81962 15.66603,6.83906c1.95904,1.98983 3.83481,5.48556 5.07502,8.09467c5.15447,-2.22825 12.13028,-4.06483 18.02727,-3.82432c2.78941,0.11389 4.82904,-1.18504 7.44218,-0.49851c2.37423,-20.56088 -9.96995,-19.04873 -23.93972,-23.60393z" stroke="null"/>
   <path id="svg_266" fill="#6AB742" d="m65.2125,268.77838l-2.39504,4.77717c7.02012,0.55285 18.40712,12.56575 17.72706,6.89861c0.71253,5.93722 1.03814,1.3006 0.95564,1.2729c3.3083,-10.24755 11.47887,-22.05035 21.95911,-21.62327c-21.09627,-14.26864 -33.40894,0.43207 -38.24677,8.67459z" stroke="null"/>
   <path id="svg_267" fill="#43A838" d="m116.96172,267.22083c-0.44497,0 -0.88728,-0.20198 -1.20201,-0.5972c-0.57694,-0.72339 -0.50647,-1.81971 0.15699,-2.44856c0.24445,-0.23196 6.13017,-5.67276 18.23868,-4.96375c0.87792,0.05143 1.55169,0.86873 1.50471,1.82637c-0.04737,0.95723 -0.79523,1.68645 -1.67506,1.64043c-10.83509,-0.63093 -15.92939,4.06961 -15.97962,4.11709c-0.30117,0.28568 -0.67319,0.42562 -1.04369,0.42562z" stroke="null"/>
   <path id="svg_268" fill="#B0E046" d="m105.41162,295.32229c4.64418,-8.41305 13.34948,-16.40715 17.92472,-21.46356c-3.74601,-7.87894 -11.16222,-13.39949 -19.87708,-13.75494c-10.48023,-0.4275 -19.60626,6.74014 -22.91475,16.98769c14.11606,8.3385 23.6292,27.35975 24.86711,18.23081z" stroke="null"/>
   <path id="svg_269" fill="#A0C638" d="m91.83736,277.83215c-0.35407,0 -0.71024,-0.12807 -1.00549,-0.39085c-0.68141,-0.60594 -0.78301,-1.69956 -0.22689,-2.44231c2.08128,-2.78068 5.88172,-6.21645 12.16753,-6.79324c0.87812,-0.08079 1.64641,0.62885 1.72013,1.5842c0.07372,0.95535 -0.57694,1.79472 -1.45314,1.8751c-4.15337,0.38085 -7.50711,2.24116 -9.96747,5.52888c-0.31512,0.4202 -0.77288,0.63822 -1.23467,0.63822z" stroke="null"/>
   <path id="svg_270" fill="#4BAA3D" d="m103.52515,339.37925c7.05527,-11.01736 -1.31411,-14.66511 0.58115,-23.75365c2.65324,-12.72234 4.56377,-16.0288 -0.92777,-23.12397c0,0 -10.83164,-17.05495 -41.59288,-19.03416c-0.5143,-0.00604 -2.33946,0.14264 -2.70194,2.50769c-0.21065,1.74183 -0.35063,3.50907 -0.41193,5.30004c-0.02655,0.7719 -0.03438,1.53985 -0.03266,2.30551c0.58859,7.50309 2.26269,18.02778 6.78503,27.80182c8.05789,15.40577 22.58054,26.35234 39.69895,28.29428c0.1631,-0.00687 0.32715,-0.0075 0.48891,-0.01749c-0.63329,-0.08121 -1.26274,-0.17221 -1.88686,-0.28007z" stroke="null"/>
   <path id="svg_271" fill="#43A838" d="m121.44414,264.57924c-0.14514,0 -0.29239,-0.02165 -0.43848,-0.06725c-0.84526,-0.26362 -1.33455,-1.22439 -1.09277,-2.14601l1.89296,-7.21886c0.2414,-0.92182 1.12333,-1.45573 1.96821,-1.19169c0.84546,0.26362 1.33493,1.22439 1.09315,2.14621l-1.89296,7.21886c-0.19995,0.7617 -0.83763,1.25874 -1.53011,1.25874z" stroke="null"/>
   <path id="svg_272" opacity="0.15" fill="#231F20" d="m68.88537,312.86532c-4.69899,-10.15654 -6.43841,-21.0927 -7.0503,-28.88898c-0.00172,-0.79564 0.00611,-1.59378 0.034,-2.39567c0.06397,-1.86093 0.20931,-3.69751 0.42835,-5.50743c0.22995,-1.4982 1.02403,-2.13934 1.73045,-2.41128c-0.80038,-0.07455 -1.6128,-0.14097 -2.44202,-0.19449c-0.5143,-0.00604 -2.33947,0.14264 -2.70195,2.50769c-0.21064,1.74183 -0.35063,3.50907 -0.41193,5.30005c-0.02655,0.7719 -0.03438,1.53985 -0.03266,2.3055c0.58859,7.50309 2.2627,18.02779 6.78503,27.80182c5.6088,10.72397 14.35135,19.28591 24.9204,24.15512c-8.90316,-5.2486 -16.27277,-13.13859 -21.25937,-22.67233z" stroke="null"/>
   <path id="svg_273" fill="#43A838" d="m154.26258,275.98037c-0.51239,-1.71288 -1.57441,-2.46293 -2.2161,-2.77006c-3.77485,-1.43407 -7.80408,-2.29364 -12.00691,-2.4648c-22.73639,-0.92682 -41.85815,18.41905 -42.70933,43.20885c-0.31931,9.31385 1.98616,18.07131 6.1951,25.4251c1.78888,0.3088 3.61023,0.51828 5.46577,0.59366c10.38361,0.42354 20.08428,-2.97913 27.96017,-9.05106l3.47406,-2.96247c9.24004,-8.6927 15.26918,-21.38776 15.76114,-35.73345c0.19441,-5.65465 -0.49711,-11.11898 -1.9239,-16.24577z" stroke="null"/>
   <path id="svg_274" opacity="0.15" fill="#231F20" d="m100.72734,314.52761c0.82464,-23.72929 18.37752,-42.5319 39.98122,-43.74816c-0.22268,-0.01291 -0.44536,-0.02499 -0.66899,-0.03394c-22.73639,-0.92682 -41.85815,18.41905 -42.70933,43.20885c-0.31931,9.31385 1.98616,18.07131 6.1951,25.4251c1.08399,0.1872 2.18153,0.33234 3.28978,0.43853c-4.14688,-7.35296 -6.40843,-16.05087 -6.08778,-25.29038z" stroke="null"/>
   <g transform="matrix(0.19097697000219785,0,0,0.20822839204255908,-5.396432409120543,-691.2360145338528) " id="svg_275" stroke="null">
    <path id="svg_276" fill="#368C2A" d="m537.912752,4852.390422c-1.031,0 -2.08,-0.192 -3.095,-0.599c-72.252,-28.924 -108.649,-78.071 -110.164,-80.149c-2.711,-3.721 -1.892,-8.935 1.829,-11.647c3.719,-2.711 8.932,-1.893 11.644,1.825c0.535,0.724 35.494,47.512 102.888,74.492c4.274,1.711 6.352,6.563 4.64,10.837c-1.304,3.259 -4.435,5.241 -7.742,5.241z" stroke="null"/>
    <path id="svg_277" fill="#368C2A" d="m502.896752,4835.372422c-3.867,0 -7.333,-2.704 -8.153,-6.639l-14.255,-68.431c-0.939,-4.507 1.954,-8.922 6.461,-9.861c4.511,-0.935 8.922,1.954 9.861,6.462l14.256,68.431c0.939,4.507 -1.954,8.922 -6.461,9.861c-0.573,0.12 -1.146,0.177 -1.709,0.177z" stroke="null"/>
    <path id="svg_278" fill="#368C2A" d="m589.629752,4932.948422c-2.97,0 -5.844,-1.591 -7.349,-4.389c-2.181,-4.055 -0.66,-9.11 3.394,-11.289c132.471,-71.222 170.905,-186.989 171.278,-188.151c1.408,-4.384 6.104,-6.798 10.486,-5.388c4.384,1.407 6.796,6.101 5.389,10.486c-0.406,1.265 -10.258,31.437 -37.329,71.015c-24.88,36.376 -69.7,87.89 -141.928,126.722c-1.256,0.673 -2.609,0.994 -3.941,0.994z" stroke="null"/>
    <path id="svg_279" fill="#368C2A" d="m656.284752,4888.097422c-2.533,0 -5.034,-1.151 -6.669,-3.337c-1.414,-1.885 -34.456,-46.932 -24.077,-111.774c0.727,-4.546 5.006,-7.646 9.55,-6.913c4.546,0.727 7.641,5.003 6.913,9.549c-9.225,57.63 20.669,98.755 20.971,99.164c2.738,3.691 1.975,8.912 -1.711,11.657c-1.496,1.115 -3.245,1.654 -4.977,1.654z" stroke="null"/>
    <path id="svg_280" fill="#368C2A" d="m720.803752,4824.051422c-3.97,0 -7.488,-2.846 -8.199,-6.893c-0.798,-4.534 2.232,-8.856 6.767,-9.653l44.074,-7.751c4.53,-0.795 8.856,2.232 9.653,6.767c0.797,4.534 -2.233,8.856 -6.767,9.654l-44.074,7.751c-0.488,0.084 -0.973,0.125 -1.454,0.125z" stroke="null"/>
   </g>
   <g transform="matrix(0.19097697000219785,0,0,0.20822839204255908,-5.396432409120543,-691.2360145338528) " id="svg_281" stroke="null"/>
   <g transform="matrix(0.19097697000219785,0,0,0.20822839204255908,-5.396432409120543,-691.2360145338528) " id="svg_282" stroke="null"/>
   <g transform="matrix(0.19097697000219785,0,0,0.20822839204255908,-5.396432409120543,-691.2360145338528) " id="svg_283" stroke="null"/>
   <g transform="matrix(0.19097697000219785,0,0,0.20822839204255908,-5.396432409120543,-691.2360145338528) " id="svg_284" stroke="null"/>
   <g transform="matrix(0.19097697000219785,0,0,0.20822839204255908,-5.396432409120543,-691.2360145338528) " id="svg_285" stroke="null"/>
   <g transform="matrix(0.19097697000219785,0,0,0.20822839204255908,-5.396432409120543,-691.2360145338528) " id="svg_286" stroke="null"/>
   <g transform="matrix(0.19097697000219785,0,0,0.20822839204255908,-5.396432409120543,-691.2360145338528) " id="svg_287" stroke="null"/>
   <g transform="matrix(0.19097697000219785,0,0,0.20822839204255908,-5.396432409120543,-691.2360145338528) " id="svg_288" stroke="null"/>
   <g transform="matrix(0.19097697000219785,0,0,0.20822839204255908,-5.396432409120543,-691.2360145338528) " id="svg_289" stroke="null"/>
   <g transform="matrix(0.19097697000219785,0,0,0.20822839204255908,-5.396432409120543,-691.2360145338528) " id="svg_290" stroke="null"/>
   <g transform="matrix(0.19097697000219785,0,0,0.20822839204255908,-5.396432409120543,-691.2360145338528) " id="svg_291" stroke="null"/>
   <g transform="matrix(0.19097697000219785,0,0,0.20822839204255908,-5.396432409120543,-691.2360145338528) " id="svg_292" stroke="null"/>
   <g transform="matrix(0.19097697000219785,0,0,0.20822839204255908,-5.396432409120543,-691.2360145338528) " id="svg_293" stroke="null"/>
   <g transform="matrix(0.19097697000219785,0,0,0.20822839204255908,-5.396432409120543,-691.2360145338528) " id="svg_294" stroke="null"/>
   <g transform="matrix(0.19097697000219785,0,0,0.20822839204255908,-5.396432409120543,-691.2360145338528) " id="svg_295" stroke="null"/>
  </g>
 </g>
</svg>