<svg width="400" height="400" xmlns="http://www.w3.org/2000/svg">
 <!-- Created with Method Draw - http://github.com/duopixel/Method-Draw/ -->

 <g>
  <title>background</title>
  <rect x="-1" y="-1" width="402" height="402" id="canvas_background" fill="none"/>
  <g id="canvasGrid" display="none">
   <rect id="svg_1" width="100%" height="100%" x="0" y="0" stroke-width="0" fill="url(#gridpattern)"/>
  </g>
 </g>
 <g>
  <title>Layer 1</title>
  <ellipse rx="100" ry="100" stroke="#000" id="svg_7" cy="100" cx="300" stroke-width="0" fill="#ff7f00"/>
  <ellipse rx="100" ry="100" stroke="#000" id="svg_8" cy="300" cx="100" stroke-width="0" fill="#ff7f00"/>
  <ellipse rx="100" ry="100" stroke="#000" id="svg_9" cy="300" cx="300" stroke-width="0" fill="#ff7f00"/>
  <ellipse rx="100" ry="100" stroke="#000" id="svg_6" cy="100" cx="100" stroke-width="0" fill="#ff7f00"/>
  <rect stroke="#000" id="svg_4" height="200" width="400" y="100" x="0" stroke-width="0" fill="#ff7f00"/>
  <rect stroke="#000" id="svg_3" height="400" width="200" y="0" x="100" stroke-width="0" fill="#ff7f00"/>
  <ellipse stroke="#000" fill="#fff" stroke-width="1.5" stroke-opacity="null" fill-opacity="null" cx="320.449965" cy="191.545909" id="svg_5"/>
  <ellipse rx="75" ry="75" stroke="#000" id="svg_12" cy="100" cx="300" stroke-width="0" fill="#ef6700"/>
  <ellipse rx="75" ry="75" stroke="#000" id="svg_11" cy="100" cx="100" stroke-width="0" fill="#ef6700"/>
  <ellipse rx="75" ry="75" stroke="#000" id="svg_14" cy="300" cx="300" stroke-width="0" fill="#ef6700"/>
  <ellipse rx="75" ry="75" stroke="#000" id="svg_15" cy="300" cx="100" stroke-width="0" fill="#ef6700"/>
  <rect stroke="#000" id="svg_16" height="200" width="350" y="100" x="25" stroke-width="0" fill="#ef6700"/>
  <rect stroke="#000" id="svg_17" height="350" width="200" y="25" x="100" stroke-width="0" fill="#ef6700"/>
  <ellipse rx="60" ry="60" stroke="#000" id="svg_23" cy="100" cx="100" stroke-width="0" fill="#ff7f00"/>
  <rect stroke="#000" id="svg_28" height="320" width="200" y="40" x="100" stroke-width="0" fill="#ff7f00"/>
  <rect stroke="#000" id="svg_27" height="200" width="320" y="100" x="40" stroke-width="0" fill="#ff7f00"/>
  <ellipse rx="60" ry="60" stroke="#000" id="svg_26" cy="300" cx="100" stroke-width="0" fill="#ff7f00"/>
  <ellipse rx="60" ry="60" stroke="#000" id="svg_25" cy="300" cx="300" stroke-width="0" fill="#ff7f00"/>
  <ellipse rx="60" ry="60" stroke="#000" id="svg_24" cy="100" cx="300" stroke-width="0" fill="#ff7f00"/>
  <ellipse rx="50" ry="50" stroke="#000" id="svg_18" cy="105" cx="295" stroke-width="0" fill="#ffdab7"/>
  <ellipse rx="65" ry="65" stroke="#000" id="svg_19" cy="120" cx="280" stroke-width="0" fill="#ff7f00"/>
  <g stroke="null" id="svg_10">
   <g stroke="null" id="svg_237" transform="matrix(0.09180875821564864,-0.6444382656413036,0.638355230799593,0.09268362513621956,-83.27197630945794,358.50412593129624) ">
    <path stroke="null" d="m152.95802,425.69145c40.55601,4.35117 78.44114,-12.83255 111.7236,-46.95515c39.90893,-40.92184 41.46807,-102.65993 41.46807,-110.55652s93.80103,-24.13329 91.22999,39.48454c-3.55785,88.41399 -61.61304,165.4088 -165.18394,173.06903c-49.61241,3.67183 -80.27362,-7.32826 -94.43919,-18.51851c-22.3021,-17.61821 -6.22094,-38.82114 15.20147,-36.52339" fill="#DA2F47" id="svg_218"/>
    <g stroke="null" id="svg_219" transform="matrix(0.5578314568734621,0,0,0.5311489030966512,-1214.8258542422534,-1128.6688347490856) ">
     <path stroke="null" d="m2709.051293,2638.975578c6.631,-23.09 49.227,-56.898 106.556,-43.979c63.187,14.243 89.399,44.157 89.399,98.662c0,54.519 -53.479,7.27 -60.912,-9.456s-38.403,33.452 -65.462,-19.031c-9.16,-17.751 -81.208,14.275 -69.581,-26.196" fill="#77B255" id="svg_220"/>
     <path stroke="null" d="m2781.835293,2533.762578c16.92,17.246 45.123,40.618 32.783,78.293c-12.355,37.674 18.986,37.036 26.746,14.14c7.731,-22.881 10.065,-72.123 -6.467,-94.112c-16.517,-21.99 -65.862,-11.375 -53.062,1.679" fill="#77B255" id="svg_221"/>
    </g>
    <g stroke="null" id="svg_222" transform="matrix(0.5578314568734621,0,0,0.5311489030966512,-1214.8258542422534,-1128.6688347490856) "/>
    <g stroke="null" id="svg_223" transform="matrix(0.5578314568734621,0,0,0.5311489030966512,-1214.8258542422534,-1128.6688347490856) "/>
    <g stroke="null" id="svg_224" transform="matrix(0.5578314568734621,0,0,0.5311489030966512,-1214.8258542422534,-1128.6688347490856) "/>
    <g stroke="null" id="svg_225" transform="matrix(0.5578314568734621,0,0,0.5311489030966512,-1214.8258542422534,-1128.6688347490856) "/>
    <g stroke="null" id="svg_226" transform="matrix(0.5578314568734621,0,0,0.5311489030966512,-1214.8258542422534,-1128.6688347490856) "/>
    <g stroke="null" id="svg_227" transform="matrix(0.5578314568734621,0,0,0.5311489030966512,-1214.8258542422534,-1128.6688347490856) "/>
    <g stroke="null" id="svg_228" transform="matrix(0.5578314568734621,0,0,0.5311489030966512,-1214.8258542422534,-1128.6688347490856) "/>
    <g stroke="null" id="svg_229" transform="matrix(0.5578314568734621,0,0,0.5311489030966512,-1214.8258542422534,-1128.6688347490856) "/>
    <g stroke="null" id="svg_230" transform="matrix(0.5578314568734621,0,0,0.5311489030966512,-1214.8258542422534,-1128.6688347490856) "/>
    <g stroke="null" id="svg_231" transform="matrix(0.5578314568734621,0,0,0.5311489030966512,-1214.8258542422534,-1128.6688347490856) "/>
    <g stroke="null" id="svg_232" transform="matrix(0.5578314568734621,0,0,0.5311489030966512,-1214.8258542422534,-1128.6688347490856) "/>
    <g stroke="null" id="svg_233" transform="matrix(0.5578314568734621,0,0,0.5311489030966512,-1214.8258542422534,-1128.6688347490856) "/>
    <g stroke="null" id="svg_234" transform="matrix(0.5578314568734621,0,0,0.5311489030966512,-1214.8258542422534,-1128.6688347490856) "/>
    <g stroke="null" id="svg_235" transform="matrix(0.5578314568734621,0,0,0.5311489030966512,-1214.8258542422534,-1128.6688347490856) "/>
    <g stroke="null" id="svg_236" transform="matrix(0.5578314568734621,0,0,0.5311489030966512,-1214.8258542422534,-1128.6688347490856) "/>
   </g>
   <g stroke="null" id="svg_260" transform="matrix(-0.07171305307888695,-0.6470314447337648,0.6409239321420335,-0.07239642337090742,18.602366967492117,419.9060018533022) ">
    <path stroke="null" d="m411.798234,479.512748c-39.68407,26.14911 -84.1953,41.31771 -129.66591,43.37522c-105.20018,4.82319 -154.7308,-59.79273 -167.09873,-79.01751c-3.10324,-4.84247 -4.72327,-10.85877 -3.94746,-16.84768c0.01992,-0.17248 0.03983,-0.34495 0.12209,-0.54381c0.28227,-1.67604 0.66931,-3.23135 1.20441,-4.76333c3.80026,-11.73128 14.65207,-18.8078 25.65195,-17.21901c58.76501,8.81343 278.46817,27.35846 321.20179,-178.67815l0.37925,0.09536l24.86488,4.3291l15.60885,2.69872c0.64074,1.47009 1.30398,3.01525 2.09192,4.50867c0.17057,0.34191 0.27794,0.71121 0.38617,1.07949c45.47147,124.1814 -31.25233,201.83332 -90.79921,240.98293z" fill="#F6C358" id="svg_242"/>
    <path stroke="null" d="m484.510504,230.241928c14.31093,97.8588 -50.62506,161.31103 -102.52034,195.4112c-39.68407,26.14911 -84.1953,41.3177 -129.66591,43.37522c-68.61416,3.12685 -113.55746,-23.25561 -139.91162,-47.31271c3.80026,-11.73128 14.65207,-18.8078 25.65195,-17.21901c58.76501,8.81343 278.46817,27.35846 321.20179,-178.67816l0.37925,0.09537l24.86488,4.32809z" fill="#FCD462" id="svg_243"/>
    <path stroke="null" d="m500.136674,232.927458l-40.85298,-7.12319c2.34561,-10.50367 6.41342,-33.68724 1.00786,-64.2243c-0.95677,-5.40453 2.96124,-10.25714 7.60138,-9.30651c4.30159,0.88064 9.30712,1.53807 13.6191,1.12717c4.03491,-0.38451 7.48363,3.40586 7.223,8.13977c-0.85547,15.54702 -0.33422,44.2102 11.40164,71.38705l0,0.00001z" fill="#44C4A1" id="svg_244"/>
    <g stroke="null" id="svg_245" transform="matrix(0.834754026681485,0,0,0.9770753848415572,-1683.6839460727429,-1859.228647245903) "/>
    <g stroke="null" id="svg_246" transform="matrix(0.834754026681485,0,0,0.9770753848415572,-1683.6839460727429,-1859.228647245903) "/>
    <g stroke="null" id="svg_247" transform="matrix(0.834754026681485,0,0,0.9770753848415572,-1683.6839460727429,-1859.228647245903) "/>
    <g stroke="null" id="svg_248" transform="matrix(0.834754026681485,0,0,0.9770753848415572,-1683.6839460727429,-1859.228647245903) "/>
    <g stroke="null" id="svg_249" transform="matrix(0.834754026681485,0,0,0.9770753848415572,-1683.6839460727429,-1859.228647245903) "/>
    <g stroke="null" id="svg_250" transform="matrix(0.834754026681485,0,0,0.9770753848415572,-1683.6839460727429,-1859.228647245903) "/>
    <g stroke="null" id="svg_251" transform="matrix(0.834754026681485,0,0,0.9770753848415572,-1683.6839460727429,-1859.228647245903) "/>
    <g stroke="null" id="svg_252" transform="matrix(0.834754026681485,0,0,0.9770753848415572,-1683.6839460727429,-1859.228647245903) "/>
    <g stroke="null" id="svg_253" transform="matrix(0.834754026681485,0,0,0.9770753848415572,-1683.6839460727429,-1859.228647245903) "/>
    <g stroke="null" id="svg_254" transform="matrix(0.834754026681485,0,0,0.9770753848415572,-1683.6839460727429,-1859.228647245903) "/>
    <g stroke="null" id="svg_255" transform="matrix(0.834754026681485,0,0,0.9770753848415572,-1683.6839460727429,-1859.228647245903) "/>
    <g stroke="null" id="svg_256" transform="matrix(0.834754026681485,0,0,0.9770753848415572,-1683.6839460727429,-1859.228647245903) "/>
    <g stroke="null" id="svg_257" transform="matrix(0.834754026681485,0,0,0.9770753848415572,-1683.6839460727429,-1859.228647245903) "/>
    <g stroke="null" id="svg_258" transform="matrix(0.834754026681485,0,0,0.9770753848415572,-1683.6839460727429,-1859.228647245903) "/>
    <g stroke="null" id="svg_259" transform="matrix(0.834754026681485,0,0,0.9770753848415572,-1683.6839460727429,-1859.228647245903) "/>
   </g>
   <g stroke="null" id="svg_296">
    <path stroke="null" d="m148.211017,226.366996c-9.947422,-3.243366 -19.380917,-0.316921 -25.377402,2.57516l-6.545167,3.901785l0.000387,0.002917c2.159565,2.231578 5.608035,3.778095 9.651402,6.513171c5.829379,0.23738 11.708604,2.819624 15.666029,6.839057c1.959045,1.98983 3.834818,5.485569 5.075025,8.09467c5.154467,-2.228251 12.130281,-4.064826 18.027268,-3.824321c2.78941,0.113898 4.829045,-1.18503 7.442184,-0.498504c2.374228,-20.560885 -9.969955,-19.048731 -23.939726,-23.603936z" fill="#70C449" id="svg_265"/>
    <path stroke="null" d="m89.212498,246.778376l-2.395039,4.777174c7.020121,0.552849 18.407121,12.56575 17.727056,6.898611c0.712531,5.937216 1.038146,1.300595 0.955648,1.272899c3.308296,-10.247547 11.478863,-22.050349 21.959102,-21.623273c-21.096265,-14.268641 -33.408937,0.432075 -38.246766,8.67459z" fill="#6AB742" id="svg_266"/>
    <path stroke="null" d="m140.961723,245.22083c-0.444978,0 -0.887279,-0.201981 -1.202008,-0.5972c-0.576942,-0.72339 -0.506471,-1.819712 0.156981,-2.44856c0.244452,-0.231963 6.130171,-5.672765 18.23868,-4.963751c0.877921,0.051434 1.551692,0.868734 1.50471,1.826372c-0.047363,0.957228 -0.795229,1.686445 -1.67506,1.640427c-10.835081,-0.630932 -15.92939,4.069611 -15.979616,4.117087c-0.301173,0.285689 -0.67319,0.425623 -1.043686,0.425623z" fill="#43A838" id="svg_267"/>
    <path stroke="null" d="m129.411621,273.322293c4.644178,-8.413056 13.349483,-16.407149 17.924718,-21.46356c-3.746012,-7.878945 -11.162219,-13.399496 -19.877076,-13.754941c-10.480238,-0.427498 -19.606266,6.74014 -22.914749,16.987688c14.116059,8.338502 23.629195,27.359752 24.867106,18.230813z" fill="#B0E046" id="svg_268"/>
    <path stroke="null" d="m115.837363,255.832149c-0.354069,0 -0.710241,-0.128065 -1.005494,-0.39085c-0.681407,-0.605943 -0.783008,-1.699557 -0.226884,-2.44231c2.081271,-2.780683 5.881715,-6.216447 12.167526,-6.793242c0.878115,-0.080791 1.646412,0.628848 1.720133,1.584201c0.073715,0.955353 -0.576942,1.794724 -1.453148,1.875098c-4.153365,0.380849 -7.507109,2.241162 -9.967466,5.528879c-0.315116,0.420206 -0.772883,0.638223 -1.234667,0.638223z" fill="#A0C638" id="svg_269"/>
    <path stroke="null" d="m127.525155,317.379251c7.055263,-11.017358 -1.314115,-14.665109 0.581141,-23.753649c2.653241,-12.722339 4.563775,-16.0288 -0.927768,-23.123975c0,0 -10.831638,-17.054943 -41.592874,-19.034154c-0.514301,-0.006042 -2.339466,0.142636 -2.701939,2.50769c-0.210651,1.741831 -0.350638,3.509067 -0.411938,5.300041c-0.026545,0.771901 -0.034374,1.53985 -0.032659,2.305507c0.588589,7.503089 2.262695,18.027783 6.785033,27.801821c8.057886,15.405772 22.580543,26.35234 39.698953,28.294277c0.163095,-0.006869 0.327144,-0.007494 0.488904,-0.017488c-0.633283,-0.081208 -1.262741,-0.172208 -1.886853,-0.28007z" fill="#4BAA3D" id="svg_270"/>
    <path stroke="null" d="m145.44414,242.579241c-0.14514,0 -0.292389,-0.021655 -0.438483,-0.067255c-0.845262,-0.263618 -1.334547,-1.224387 -1.092771,-2.146002l1.892966,-7.218865c0.241395,-0.921823 1.123328,-1.455725 1.96821,-1.191691c0.845456,0.263618 1.334927,1.224387 1.093152,2.14621l-1.892966,7.218865c-0.199952,0.761699 -0.837627,1.258738 -1.530107,1.258738z" fill="#43A838" id="svg_271"/>
    <path stroke="null" d="m92.885369,290.865323c-4.69899,-10.156547 -6.438406,-21.092704 -7.050297,-28.888983c-0.001722,-0.795639 0.006107,-1.593778 0.033994,-2.395667c0.063976,-1.860938 0.20931,-3.697512 0.428358,-5.507432c0.229941,-1.498201 1.024022,-2.139341 1.730446,-2.411286c-0.800382,-0.074541 -1.612799,-0.140969 -2.442022,-0.194481c-0.514301,-0.006042 -2.339473,0.142636 -2.701945,2.50769c-0.210645,1.741831 -0.350632,3.509067 -0.411938,5.300041c-0.026545,0.771901 -0.034374,1.53985 -0.032652,2.305501c0.588589,7.503096 2.262695,18.02779 6.785027,27.801821c5.608802,10.723973 14.351346,19.285909 24.920397,24.155118c-8.903155,-5.2486 -16.272766,-13.138587 -21.259366,-22.672321z" fill="#231F20" opacity="0.15" id="svg_272"/>
    <path stroke="null" d="m178.262579,253.980372c-0.512392,-1.712885 -1.574413,-2.462929 -2.216099,-2.770065c-3.774853,-1.434064 -7.804083,-2.293632 -12.006914,-2.464798c-22.736383,-0.926823 -41.858143,18.41905 -42.709326,43.20885c-0.319308,9.313849 1.986164,18.071307 6.195102,25.4251c1.788882,0.308802 3.61023,0.518284 5.465765,0.593658c10.383609,0.42354 20.084283,-2.979123 27.960172,-9.051058l3.474061,-2.962468c9.240037,-8.692703 15.269182,-21.387762 15.761142,-35.733451c0.194412,-5.654646 -0.497113,-11.118977 -1.923903,-16.245768z" fill="#43A838" id="svg_273"/>
    <path stroke="null" d="m124.727342,292.527613c0.824638,-23.729293 18.377519,-42.531901 39.981216,-43.748163c-0.222679,-0.012911 -0.445358,-0.024988 -0.668992,-0.03394c-22.736383,-0.926823 -41.858143,18.41905 -42.709326,43.20885c-0.319308,9.313849 1.986164,18.071307 6.195102,25.4251c1.083987,0.187202 2.181531,0.332338 3.289774,0.438534c-4.146877,-7.352966 -6.408424,-16.050871 -6.087774,-25.290381z" fill="#231F20" opacity="0.15" id="svg_274"/>
    <g stroke="null" id="svg_275" transform="matrix(0.19097697000219785,0,0,0.20822839204255908,-5.396432409120543,-691.2360145338528) ">
     <path stroke="null" d="m663.582352,4746.737204c-1.031,0 -2.08,-0.192 -3.095,-0.599c-72.252,-28.924 -108.649,-78.071 -110.164,-80.149c-2.711,-3.721 -1.892,-8.935 1.829,-11.647c3.719,-2.711 8.932,-1.893 11.644,1.825c0.535,0.724 35.494,47.512 102.888,74.492c4.274,1.711 6.352,6.563 4.64,10.837c-1.304,3.259 -4.435,5.241 -7.742,5.241z" fill="#368C2A" id="svg_276"/>
     <path stroke="null" d="m628.566352,4729.719204c-3.867,0 -7.333,-2.704 -8.153,-6.639l-14.255,-68.431c-0.939,-4.507 1.954,-8.922 6.461,-9.861c4.511,-0.935 8.922,1.954 9.861,6.462l14.256,68.431c0.939,4.507 -1.954,8.922 -6.461,9.861c-0.573,0.12 -1.146,0.177 -1.709,0.177z" fill="#368C2A" id="svg_277"/>
     <path stroke="null" d="m715.299352,4827.295204c-2.97,0 -5.844,-1.591 -7.349,-4.389c-2.181,-4.055 -0.66,-9.11 3.394,-11.289c132.471,-71.222 170.905,-186.989 171.278,-188.151c1.408,-4.384 6.104,-6.798 10.486,-5.388c4.384,1.407 6.796,6.101 5.389,10.486c-0.406,1.265 -10.258,31.437 -37.329,71.015c-24.88,36.376 -69.7,87.89 -141.928,126.722c-1.256,0.673 -2.609,0.994 -3.941,0.994z" fill="#368C2A" id="svg_278"/>
     <path stroke="null" d="m781.954352,4782.444204c-2.533,0 -5.034,-1.151 -6.669,-3.337c-1.414,-1.885 -34.456,-46.932 -24.077,-111.774c0.727,-4.546 5.006,-7.646 9.55,-6.913c4.546,0.727 7.641,5.003 6.913,9.549c-9.225,57.63 20.669,98.755 20.971,99.164c2.738,3.691 1.975,8.912 -1.711,11.657c-1.496,1.115 -3.245,1.654 -4.977,1.654z" fill="#368C2A" id="svg_279"/>
     <path stroke="null" d="m846.473352,4718.398204c-3.97,0 -7.488,-2.846 -8.199,-6.893c-0.798,-4.534 2.232,-8.856 6.767,-9.653l44.074,-7.751c4.53,-0.795 8.856,2.232 9.653,6.767c0.797,4.534 -2.233,8.856 -6.767,9.654l-44.074,7.751c-0.488,0.084 -0.973,0.125 -1.454,0.125z" fill="#368C2A" id="svg_280"/>
    </g>
    <g stroke="null" id="svg_281" transform="matrix(0.19097697000219785,0,0,0.20822839204255908,-5.396432409120543,-691.2360145338528) "/>
    <g stroke="null" id="svg_282" transform="matrix(0.19097697000219785,0,0,0.20822839204255908,-5.396432409120543,-691.2360145338528) "/>
    <g stroke="null" id="svg_283" transform="matrix(0.19097697000219785,0,0,0.20822839204255908,-5.396432409120543,-691.2360145338528) "/>
    <g stroke="null" id="svg_284" transform="matrix(0.19097697000219785,0,0,0.20822839204255908,-5.396432409120543,-691.2360145338528) "/>
    <g stroke="null" id="svg_285" transform="matrix(0.19097697000219785,0,0,0.20822839204255908,-5.396432409120543,-691.2360145338528) "/>
    <g stroke="null" id="svg_286" transform="matrix(0.19097697000219785,0,0,0.20822839204255908,-5.396432409120543,-691.2360145338528) "/>
    <g stroke="null" id="svg_287" transform="matrix(0.19097697000219785,0,0,0.20822839204255908,-5.396432409120543,-691.2360145338528) "/>
    <g stroke="null" id="svg_288" transform="matrix(0.19097697000219785,0,0,0.20822839204255908,-5.396432409120543,-691.2360145338528) "/>
    <g stroke="null" id="svg_289" transform="matrix(0.19097697000219785,0,0,0.20822839204255908,-5.396432409120543,-691.2360145338528) "/>
    <g stroke="null" id="svg_290" transform="matrix(0.19097697000219785,0,0,0.20822839204255908,-5.396432409120543,-691.2360145338528) "/>
    <g stroke="null" id="svg_291" transform="matrix(0.19097697000219785,0,0,0.20822839204255908,-5.396432409120543,-691.2360145338528) "/>
    <g stroke="null" id="svg_292" transform="matrix(0.19097697000219785,0,0,0.20822839204255908,-5.396432409120543,-691.2360145338528) "/>
    <g stroke="null" id="svg_293" transform="matrix(0.19097697000219785,0,0,0.20822839204255908,-5.396432409120543,-691.2360145338528) "/>
    <g stroke="null" id="svg_294" transform="matrix(0.19097697000219785,0,0,0.20822839204255908,-5.396432409120543,-691.2360145338528) "/>
    <g stroke="null" id="svg_295" transform="matrix(0.19097697000219785,0,0,0.20822839204255908,-5.396432409120543,-691.2360145338528) "/>
   </g>
  </g>
 </g>
</svg>