<svg width="400" height="400" xmlns="http://www.w3.org/2000/svg">
 <!-- Created with Method Draw - http://github.com/duopixel/Method-Draw/ -->

 <g>
  <title>background</title>
  <rect x="-1" y="-1" width="402" height="402" id="canvas_background" fill="none"/>
  <g id="canvasGrid" display="none">
   <rect id="svg_1" width="100%" height="100%" x="0" y="0" stroke-width="0" fill="url(#gridpattern)"/>
  </g>
 </g>
 <g>
  <title>Layer 1</title>
  <ellipse rx="100" ry="100" stroke="#000" id="svg_7" cy="100" cx="300" stroke-width="0" fill="#ff0000"/>
  <ellipse rx="100" ry="100" stroke="#000" id="svg_8" cy="300" cx="100" stroke-width="0" fill="#ff0000"/>
  <ellipse rx="100" ry="100" stroke="#000" id="svg_9" cy="300" cx="300" stroke-width="0" fill="#ff0000"/>
  <ellipse rx="100" ry="100" stroke="#000" id="svg_6" cy="100" cx="100" stroke-width="0" fill="#ff0000"/>
  <rect stroke="#000" id="svg_4" height="200" width="400" y="100" x="0" stroke-width="0" fill="#ff0000"/>
  <rect stroke="#000" id="svg_3" height="400" width="200" y="0" x="100" stroke-width="0" fill="#ff0000"/>
  <g stroke="null" id="svg_2">
   <ellipse stroke="#000" fill="#fff" stroke-width="1.5" stroke-opacity="null" fill-opacity="null" cx="320.449965" cy="191.545909" id="svg_5"/>
   <g stroke="null" id="svg_237" transform="matrix(0.1128348688466123,-0.7825891510695054,0.784551824300177,0.11255259561785635,-109.01399624704999,354.7236768015468) ">
    <path stroke="null" d="m86.382413,383.571055c40.55601,4.35117 78.44114,-12.83255 111.7236,-46.95515c39.90893,-40.92184 41.46807,-102.65993 41.46807,-110.55652s93.80103,-24.13329 91.22999,39.48454c-3.55785,88.41399 -61.61304,165.4088 -165.18394,173.06903c-49.61241,3.67183 -80.27362,-7.32826 -94.43919,-18.51851c-22.3021,-17.61821 -6.22094,-38.82114 15.20147,-36.52339" fill="#DA2F47" id="svg_218"/>
    <g stroke="null" id="svg_219" transform="matrix(0.5578314568734621,0,0,0.5311489030966512,-1214.8258542422534,-1128.6688347490856) ">
     <path stroke="null" d="m2589.704118,2559.675034c6.631,-23.09 49.227,-56.898 106.556,-43.979c63.187,14.243 89.399,44.157 89.399,98.662c0,54.519 -53.479,7.27 -60.912,-9.456s-38.403,33.452 -65.462,-19.031c-9.16,-17.751 -81.208,14.275 -69.581,-26.196" fill="#77B255" id="svg_220"/>
     <path stroke="null" d="m2662.488118,2454.462034c16.92,17.246 45.123,40.618 32.783,78.293c-12.355,37.674 18.986,37.036 26.746,14.14c7.731,-22.881 10.065,-72.123 -6.467,-94.112c-16.517,-21.99 -65.862,-11.375 -53.062,1.679" fill="#77B255" id="svg_221"/>
    </g>
    <g stroke="null" id="svg_222" transform="matrix(0.5578314568734621,0,0,0.5311489030966512,-1214.8258542422534,-1128.6688347490856) "/>
    <g stroke="null" id="svg_223" transform="matrix(0.5578314568734621,0,0,0.5311489030966512,-1214.8258542422534,-1128.6688347490856) "/>
    <g stroke="null" id="svg_224" transform="matrix(0.5578314568734621,0,0,0.5311489030966512,-1214.8258542422534,-1128.6688347490856) "/>
    <g stroke="null" id="svg_225" transform="matrix(0.5578314568734621,0,0,0.5311489030966512,-1214.8258542422534,-1128.6688347490856) "/>
    <g stroke="null" id="svg_226" transform="matrix(0.5578314568734621,0,0,0.5311489030966512,-1214.8258542422534,-1128.6688347490856) "/>
    <g stroke="null" id="svg_227" transform="matrix(0.5578314568734621,0,0,0.5311489030966512,-1214.8258542422534,-1128.6688347490856) "/>
    <g stroke="null" id="svg_228" transform="matrix(0.5578314568734621,0,0,0.5311489030966512,-1214.8258542422534,-1128.6688347490856) "/>
    <g stroke="null" id="svg_229" transform="matrix(0.5578314568734621,0,0,0.5311489030966512,-1214.8258542422534,-1128.6688347490856) "/>
    <g stroke="null" id="svg_230" transform="matrix(0.5578314568734621,0,0,0.5311489030966512,-1214.8258542422534,-1128.6688347490856) "/>
    <g stroke="null" id="svg_231" transform="matrix(0.5578314568734621,0,0,0.5311489030966512,-1214.8258542422534,-1128.6688347490856) "/>
    <g stroke="null" id="svg_232" transform="matrix(0.5578314568734621,0,0,0.5311489030966512,-1214.8258542422534,-1128.6688347490856) "/>
    <g stroke="null" id="svg_233" transform="matrix(0.5578314568734621,0,0,0.5311489030966512,-1214.8258542422534,-1128.6688347490856) "/>
    <g stroke="null" id="svg_234" transform="matrix(0.5578314568734621,0,0,0.5311489030966512,-1214.8258542422534,-1128.6688347490856) "/>
    <g stroke="null" id="svg_235" transform="matrix(0.5578314568734621,0,0,0.5311489030966512,-1214.8258542422534,-1128.6688347490856) "/>
    <g stroke="null" id="svg_236" transform="matrix(0.5578314568734621,0,0,0.5311489030966512,-1214.8258542422534,-1128.6688347490856) "/>
   </g>
   <g stroke="null" id="svg_260" transform="matrix(-0.08813683025468842,-0.7857382406452477,0.7877088115496895,-0.08791634284771385,16.191685497266654,429.28852577751354) ">
    <path stroke="null" d="m358.098309,420.746585c-39.68407,26.14911 -84.1953,41.31771 -129.66591,43.37522c-105.20018,4.82319 -154.7308,-59.79273 -167.09873,-79.01751c-3.10324,-4.84247 -4.72327,-10.85877 -3.94746,-16.84768c0.01992,-0.17248 0.03983,-0.34495 0.12209,-0.54381c0.28227,-1.67604 0.66931,-3.23135 1.20441,-4.76333c3.80026,-11.73128 14.65207,-18.8078 25.65195,-17.21901c58.76501,8.81343 278.46817,27.35846 321.20179,-178.67815l0.37925,0.09536l24.86488,4.3291l15.60885,2.69872c0.64074,1.47009 1.30398,3.01525 2.09192,4.50867c0.17057,0.34191 0.27794,0.71121 0.38617,1.07949c45.47147,124.1814 -31.25233,201.83332 -90.79921,240.98293z" fill="#F6C358" id="svg_242"/>
    <path stroke="null" d="m430.810579,171.475765c14.31093,97.8588 -50.62506,161.31103 -102.52034,195.4112c-39.68407,26.14911 -84.1953,41.3177 -129.66591,43.37522c-68.61416,3.12685 -113.55746,-23.25561 -139.91162,-47.31271c3.80026,-11.73128 14.65207,-18.8078 25.65195,-17.21901c58.76501,8.81343 278.46817,27.35846 321.20179,-178.67816l0.37925,0.09537l24.86488,4.32809z" fill="#FCD462" id="svg_243"/>
    <path stroke="null" d="m446.436749,174.161295l-40.85298,-7.12319c2.34561,-10.50367 6.41342,-33.68724 1.00786,-64.2243c-0.95677,-5.40453 2.96124,-10.25714 7.60138,-9.30651c4.30159,0.88064 9.30712,1.53807 13.6191,1.12717c4.03491,-0.38451 7.48363,3.40586 7.223,8.13977c-0.85547,15.54702 -0.33422,44.2102 11.40164,71.38705l0,0.00001z" fill="#44C4A1" id="svg_244"/>
    <g stroke="null" id="svg_245" transform="matrix(0.834754026681485,0,0,0.9770753848415572,-1683.6839460727429,-1859.228647245903) "/>
    <g stroke="null" id="svg_246" transform="matrix(0.834754026681485,0,0,0.9770753848415572,-1683.6839460727429,-1859.228647245903) "/>
    <g stroke="null" id="svg_247" transform="matrix(0.834754026681485,0,0,0.9770753848415572,-1683.6839460727429,-1859.228647245903) "/>
    <g stroke="null" id="svg_248" transform="matrix(0.834754026681485,0,0,0.9770753848415572,-1683.6839460727429,-1859.228647245903) "/>
    <g stroke="null" id="svg_249" transform="matrix(0.834754026681485,0,0,0.9770753848415572,-1683.6839460727429,-1859.228647245903) "/>
    <g stroke="null" id="svg_250" transform="matrix(0.834754026681485,0,0,0.9770753848415572,-1683.6839460727429,-1859.228647245903) "/>
    <g stroke="null" id="svg_251" transform="matrix(0.834754026681485,0,0,0.9770753848415572,-1683.6839460727429,-1859.228647245903) "/>
    <g stroke="null" id="svg_252" transform="matrix(0.834754026681485,0,0,0.9770753848415572,-1683.6839460727429,-1859.228647245903) "/>
    <g stroke="null" id="svg_253" transform="matrix(0.834754026681485,0,0,0.9770753848415572,-1683.6839460727429,-1859.228647245903) "/>
    <g stroke="null" id="svg_254" transform="matrix(0.834754026681485,0,0,0.9770753848415572,-1683.6839460727429,-1859.228647245903) "/>
    <g stroke="null" id="svg_255" transform="matrix(0.834754026681485,0,0,0.9770753848415572,-1683.6839460727429,-1859.228647245903) "/>
    <g stroke="null" id="svg_256" transform="matrix(0.834754026681485,0,0,0.9770753848415572,-1683.6839460727429,-1859.228647245903) "/>
    <g stroke="null" id="svg_257" transform="matrix(0.834754026681485,0,0,0.9770753848415572,-1683.6839460727429,-1859.228647245903) "/>
    <g stroke="null" id="svg_258" transform="matrix(0.834754026681485,0,0,0.9770753848415572,-1683.6839460727429,-1859.228647245903) "/>
    <g stroke="null" id="svg_259" transform="matrix(0.834754026681485,0,0,0.9770753848415572,-1683.6839460727429,-1859.228647245903) "/>
   </g>
   <g stroke="null" id="svg_296">
    <path stroke="null" d="m134.925721,241.620357c-12.225588,-3.938659 -23.819549,-0.384861 -31.189354,3.127208l-8.044146,4.738227l0.000476,0.003542c2.65415,2.709971 6.892391,4.588021 11.861773,7.909427c7.164428,0.288268 14.390118,3.424078 19.253875,8.305174c2.407707,2.416398 4.713071,6.661534 6.237311,9.829958c6.334947,-2.705931 14.908367,-4.93622 22.155886,-4.644157c3.428243,0.138315 5.934996,-1.43907 9.146599,-0.60537c2.917975,-24.968606 -12.253282,-23.132286 -29.42242,-28.664009z" fill="#70C449" id="svg_265"/>
    <path stroke="null" d="m62.415317,266.407408l-2.943553,5.801276c8.627874,0.671365 22.622734,15.259522 21.786919,8.377494c0.875715,7.210001 1.275903,1.579409 1.174511,1.545775c4.065964,-12.444356 14.107761,-26.777373 26.988191,-26.258744c-25.927747,-17.327468 -41.060277,0.524701 -47.006069,10.534198z" fill="#6AB742" id="svg_266"/>
    <path stroke="null" d="m126.016188,264.515965c-0.546887,0 -1.090485,-0.245281 -1.477293,-0.725224c-0.709074,-0.878466 -0.622464,-2.209811 0.192933,-2.973468c0.300436,-0.28169 7.534108,-6.888859 22.415716,-6.02785c1.078984,0.062461 1.907062,1.054969 1.849319,2.217899c-0.05821,1.162433 -0.977353,2.047975 -2.058683,1.992092c-13.31654,-0.766187 -19.577551,4.942031 -19.63928,4.999684c-0.370148,0.346933 -0.827365,0.516866 -1.282712,0.516866z" fill="#43A838" id="svg_267"/>
    <path stroke="null" d="m111.820873,298.641654c5.707791,-10.216597 16.406792,-19.924417 22.029851,-26.064791c-4.603927,-9.567987 -13.718599,-16.272001 -24.429339,-16.703644c-12.88043,-0.519143 -24.096508,8.185052 -28.162702,20.629408c17.348929,10.126061 29.040771,33.224974 30.56219,22.139027z" fill="#B0E046" id="svg_268"/>
    <path stroke="null" d="m95.137828,277.402076c-0.435159,0 -0.872901,-0.155519 -1.235773,-0.474638c-0.837463,-0.735842 -0.962333,-2.063898 -0.278845,-2.965878c2.557925,-3.37679 7.228749,-7.549092 14.954141,-8.249537c1.079221,-0.098111 2.023475,0.763657 2.11408,1.923812c0.090597,1.160156 -0.709074,2.179466 -1.785949,2.277071c-5.104572,0.462494 -9.226393,2.721609 -12.250222,6.714127c-0.387284,0.510288 -0.949889,0.775042 -1.517432,0.775042z" fill="#A0C638" id="svg_269"/>
    <path stroke="null" d="m109.502368,352.143284c8.671064,-13.379195 -1.615075,-17.808929 0.714234,-28.845817c3.260888,-15.449679 5.608974,-19.464959 -1.140246,-28.081156c0,0 -13.312307,-20.711081 -51.118505,-23.114584c-0.632086,-0.007337 -2.875253,0.173214 -3.320739,3.045274c-0.258895,2.115235 -0.430942,4.26132 -0.506281,6.436232c-0.032624,0.937377 -0.042247,1.869954 -0.040138,2.799748c0.723389,9.111557 2.780899,21.892474 8.338947,33.761812c9.90331,18.708371 27.751956,32.001599 48.790837,34.359837c0.200447,-0.008341 0.402067,-0.0091 0.600873,-0.021237c-0.778317,-0.098617 -1.551935,-0.209125 -2.318981,-0.34011z" fill="#4BAA3D" id="svg_270"/>
    <path stroke="null" d="m131.525172,261.308087c-0.17838,0 -0.359352,-0.026297 -0.538905,-0.081673c-1.038845,-0.320131 -1.640185,-1.486864 -1.343038,-2.606049l2.326495,-8.766403c0.296679,-1.119438 1.380593,-1.767795 2.41897,-1.447158c1.039083,0.320131 1.640653,1.486864 1.343506,2.606302l-2.326495,8.766403c-0.245745,0.924987 -1.02946,1.528579 -1.880533,1.528579z" fill="#43A838" id="svg_271"/>
    <path stroke="null" d="m66.929352,319.945455c-5.775156,-12.333848 -7.912935,-25.614434 -8.664961,-35.082033c-0.002116,-0.966203 0.007506,-1.935443 0.041779,-2.909236c0.078628,-2.259875 0.257246,-4.490163 0.526461,-6.688083c0.282602,-1.819377 1.258545,-2.597961 2.126754,-2.928204c-0.983686,-0.090521 -1.982163,-0.17119 -3.001296,-0.236173c-0.632086,-0.007337 -2.87526,0.173214 -3.320747,3.045274c-0.258887,2.115235 -0.430934,4.26132 -0.506281,6.436232c-0.032624,0.937377 -0.042247,1.869954 -0.040131,2.79974c0.723389,9.111565 2.780899,21.892482 8.338939,33.761812c6.893335,13.022916 17.638102,23.420309 30.627684,29.33335c-10.942163,-6.373764 -19.999568,-15.95516 -26.128202,-27.53268z" fill="#231F20" opacity="0.15" id="svg_272"/>
    <path stroke="null" d="m171.859714,275.153326c-0.62974,-2.080083 -1.934986,-2.990917 -2.723631,-3.363895c-4.639373,-1.741491 -9.59138,-2.785327 -14.756746,-2.993187c-27.943486,-1.12551 -51.444527,22.367618 -52.490648,52.471709c-0.392436,11.310497 2.441037,21.945328 7.613909,30.875583c2.198573,0.375001 4.437047,0.62939 6.717538,0.720923c12.761671,0.514336 24.684001,-3.61777 34.363632,-10.991371l4.269693,-3.597545c11.356198,-10.556194 18.766141,-25.972745 19.370771,-43.393778c0.238937,-6.866855 -0.610963,-13.502598 -2.364517,-19.728441z" fill="#43A838" id="svg_273"/>
    <path stroke="null" d="m106.063797,321.964097c1.013497,-28.816239 22.586352,-51.64964 49.137744,-53.126637c-0.273677,-0.015678 -0.547355,-0.030345 -0.822205,-0.041216c-27.943486,-1.12551 -51.444527,22.367618 -52.490648,52.471709c-0.392436,11.310497 2.441037,21.945328 7.613909,30.875583c1.332243,0.227333 2.681147,0.403583 4.0432,0.532544c-5.096598,-8.929251 -7.876086,-19.491762 -7.482001,-30.711984z" fill="#231F20" opacity="0.15" id="svg_274"/>
    <g stroke="null" id="svg_275" transform="matrix(0.2347146588379456,0,0,0.2528671701314785,-13.303336903272617,-920.0535814245536) ">
     <path stroke="null" d="m490.786652,4934.031546c-1.031,0 -2.08,-0.192 -3.095,-0.599c-72.252,-28.924 -108.649,-78.071 -110.164,-80.149c-2.711,-3.721 -1.892,-8.935 1.829,-11.647c3.719,-2.711 8.932,-1.893 11.644,1.825c0.535,0.724 35.494,47.512 102.888,74.492c4.274,1.711 6.352,6.563 4.64,10.837c-1.304,3.259 -4.435,5.241 -7.742,5.241z" fill="#368C2A" id="svg_276"/>
     <path stroke="null" d="m455.770652,4917.013546c-3.867,0 -7.333,-2.704 -8.153,-6.639l-14.255,-68.431c-0.939,-4.507 1.954,-8.922 6.461,-9.861c4.511,-0.935 8.922,1.954 9.861,6.462l14.256,68.431c0.939,4.507 -1.954,8.922 -6.461,9.861c-0.573,0.12 -1.146,0.177 -1.709,0.177z" fill="#368C2A" id="svg_277"/>
     <path stroke="null" d="m542.503652,5014.589546c-2.97,0 -5.844,-1.591 -7.349,-4.389c-2.181,-4.055 -0.66,-9.11 3.394,-11.289c132.471,-71.222 170.905,-186.989 171.278,-188.151c1.408,-4.384 6.104,-6.798 10.486,-5.388c4.384,1.407 6.796,6.101 5.389,10.486c-0.406,1.265 -10.258,31.437 -37.329,71.015c-24.88,36.376 -69.7,87.89 -141.928,126.722c-1.256,0.673 -2.609,0.994 -3.941,0.994z" fill="#368C2A" id="svg_278"/>
     <path stroke="null" d="m609.158652,4969.738546c-2.533,0 -5.034,-1.151 -6.669,-3.337c-1.414,-1.885 -34.456,-46.932 -24.077,-111.774c0.727,-4.546 5.006,-7.646 9.55,-6.913c4.546,0.727 7.641,5.003 6.913,9.549c-9.225,57.63 20.669,98.755 20.971,99.164c2.738,3.691 1.975,8.912 -1.711,11.657c-1.496,1.115 -3.245,1.654 -4.977,1.654z" fill="#368C2A" id="svg_279"/>
     <path stroke="null" d="m673.677652,4905.692546c-3.97,0 -7.488,-2.846 -8.199,-6.893c-0.798,-4.534 2.232,-8.856 6.767,-9.653l44.074,-7.751c4.53,-0.795 8.856,2.232 9.653,6.767c0.797,4.534 -2.233,8.856 -6.767,9.654l-44.074,7.751c-0.488,0.084 -0.973,0.125 -1.454,0.125z" fill="#368C2A" id="svg_280"/>
    </g>
    <g stroke="null" id="svg_281" transform="matrix(0.2347146588379456,0,0,0.2528671701314785,-13.303336903272617,-920.0535814245536) "/>
    <g stroke="null" id="svg_282" transform="matrix(0.2347146588379456,0,0,0.2528671701314785,-13.303336903272617,-920.0535814245536) "/>
    <g stroke="null" id="svg_283" transform="matrix(0.2347146588379456,0,0,0.2528671701314785,-13.303336903272617,-920.0535814245536) "/>
    <g stroke="null" id="svg_284" transform="matrix(0.2347146588379456,0,0,0.2528671701314785,-13.303336903272617,-920.0535814245536) "/>
    <g stroke="null" id="svg_285" transform="matrix(0.2347146588379456,0,0,0.2528671701314785,-13.303336903272617,-920.0535814245536) "/>
    <g stroke="null" id="svg_286" transform="matrix(0.2347146588379456,0,0,0.2528671701314785,-13.303336903272617,-920.0535814245536) "/>
    <g stroke="null" id="svg_287" transform="matrix(0.2347146588379456,0,0,0.2528671701314785,-13.303336903272617,-920.0535814245536) "/>
    <g stroke="null" id="svg_288" transform="matrix(0.2347146588379456,0,0,0.2528671701314785,-13.303336903272617,-920.0535814245536) "/>
    <g stroke="null" id="svg_289" transform="matrix(0.2347146588379456,0,0,0.2528671701314785,-13.303336903272617,-920.0535814245536) "/>
    <g stroke="null" id="svg_290" transform="matrix(0.2347146588379456,0,0,0.2528671701314785,-13.303336903272617,-920.0535814245536) "/>
    <g stroke="null" id="svg_291" transform="matrix(0.2347146588379456,0,0,0.2528671701314785,-13.303336903272617,-920.0535814245536) "/>
    <g stroke="null" id="svg_292" transform="matrix(0.2347146588379456,0,0,0.2528671701314785,-13.303336903272617,-920.0535814245536) "/>
    <g stroke="null" id="svg_293" transform="matrix(0.2347146588379456,0,0,0.2528671701314785,-13.303336903272617,-920.0535814245536) "/>
    <g stroke="null" id="svg_294" transform="matrix(0.2347146588379456,0,0,0.2528671701314785,-13.303336903272617,-920.0535814245536) "/>
    <g stroke="null" id="svg_295" transform="matrix(0.2347146588379456,0,0,0.2528671701314785,-13.303336903272617,-920.0535814245536) "/>
   </g>
  </g>
 </g>
</svg>