<svg width="400" height="400" xmlns="http://www.w3.org/2000/svg">
 <!-- Created with Method Draw - http://github.com/duopixel/Method-Draw/ -->

 <g>
  <title>background</title>
  <rect fill="#fff" id="canvas_background" height="402" width="402" y="-1" x="-1"/>
  <g display="none" overflow="visible" y="0" x="0" height="100%" width="100%" id="canvasGrid">
   <rect fill="url(#gridpattern)" stroke-width="0" y="0" x="0" height="100%" width="100%"/>
  </g>
 </g>
 <g>
  <title>Layer 1</title>
  <ellipse ry="400" rx="800" id="svg_1" cy="180.5" cx="184.5" stroke-width="1.5" stroke="#000" fill="#fff"/>
  <ellipse stroke="#000" ry="450" rx="450" id="svg_3" cy="400" cx="1" stroke-width="1.5" fill="#999999"/>
  <ellipse ry="380" rx="380" id="svg_4" cy="400" cx="1" stroke-opacity="null" stroke-width="1.5" stroke="#000" fill="#cccccc"/>
  <ellipse id="svg_5" cy="191.666446" cx="341.668922" fill-opacity="null" stroke-opacity="null" stroke-width="1.5" stroke="#000" fill="#fff"/>
  <g stroke="null" id="svg_93">
   <path stroke="null" id="svg_65" fill="#B0E046" d="m94.961358,294.699823c7.236818,-12.8853 18.284865,-22.977123 31.411065,-28.553212c-5.836837,-12.066982 -17.39313,-20.522168 -30.973802,-21.066506c-16.330853,-0.654655 -30.551595,10.322993 -35.706879,26.017908c25.564395,8.583285 35.26347,23.591602 35.269616,23.601811z"/>
   <path stroke="null" id="svg_66" fill="#6AB742" d="m32.069167,265.682294c10.938654,0.846968 20.21583,2.899843 28.001455,5.548428c-0.128752,-0.043468 -0.249821,-0.090229 -0.378572,-0.133038c5.155284,-15.694585 19.376026,-26.672562 35.706879,-26.017908c-32.873732,-21.853541 -52.059857,0.661899 -59.598427,13.285404"/>
   <path stroke="null" id="svg_67" fill="#70C449" d="m77.991971,237.024363l0.000615,0.00461c5.30954,1.310297 11.105816,3.862396 17.406343,8.051131c9.083895,0.363551 17.26192,4.267439 23.428472,10.423431c3.05224,3.0477 5.612521,6.647312 7.545023,10.642746c8.031759,-3.412897 16.838792,-5.13647 26.027777,-4.768309c4.346208,0.174531 8.567353,0.825563 12.639157,1.877028c3.699685,-31.490595 -15.535298,-29.174278 -37.303521,-36.150563c-15.500882,-4.967537 -30.200678,-0.485393 -39.544535,3.944063"/>
   <path stroke="null" id="svg_68" fill="#43A838" d="m153.248916,348.776329c14.258538,-13.306808 23.550156,-32.653035 24.312832,-54.498343c0.345386,-9.872836 -1.102838,-19.367302 -3.998671,-28.148498c-6.578311,-2.782611 -13.694367,-4.451848 -21.162568,-4.750856c-35.429403,-1.419626 -65.226004,28.210078 -66.55193,66.177407c-0.497798,14.264751 3.094953,27.677595 9.65329,38.940748c2.787977,0.472879 5.626041,0.79362 8.517573,0.909206c16.179977,0.648727 31.296449,-4.562824 43.569325,-13.862343"/>
   <g stroke="null" transform="matrix(0.307282829376376,0,0,0.3293030857825705,-70.79144133812588,-1260.0004680314887) " id="svg_69" opacity="0.15">
    <path stroke="null" id="svg_70" fill="#231F20" d="m566.826426,4939.209449c-21.343,-34.202 -33.034,-74.932 -31.415,-118.252c4.054,-108.315 89.881,-194.277 195.857,-200.717c-1.637,-0.1 -3.28,-0.184 -4.929,-0.246c-115.299,-4.311 -212.267,85.666 -216.582,200.962c-1.62,43.318 10.072,84.049 31.415,118.252c9.073,1.436 18.309,2.41 27.719,2.761c7.328,0.274 14.584,0.192 21.762,-0.209c-8.066,-0.448 -16.011,-1.315 -23.827,-2.551z"/>
   </g>
   <path stroke="null" id="svg_71" fill="#43A838" d="m95.501561,366.496457c-6.558337,-11.262824 -10.150781,-24.675339 -9.65329,-38.940748c0.420363,-12.030759 3.701836,-23.222124 9.113087,-32.855886c0,0 -17.72223,-27.441485 -68.441105,-29.339258c-0.662194,3.958223 -1.080406,8.011615 -1.224215,12.145027c-0.041483,1.182198 -0.053467,2.358139 -0.051009,3.531117c0.917547,11.49136 3.526378,27.610747 10.572988,42.580536c12.556191,23.594566 35.18665,40.360703 61.86095,43.33464c0.254123,-0.010538 0.510089,-0.011196 0.762061,-0.027003c-0.985456,-0.124477 -1.966917,-0.263442 -2.939468,-0.428423z"/>
   <g stroke="null" transform="matrix(0.307282829376376,0,0,0.3293030857825705,-70.79144133812588,-1260.0004680314887) " id="svg_72" opacity="0.15">
    <path stroke="null" id="svg_73" fill="#231F20" d="m538.269426,4934.396449c-71.16,-17.494 -130.552,-63.775 -165.695,-125.398c-22.932,-45.459 -31.421,-94.409 -34.408,-129.305c-0.009,-3.562 0.031,-7.133 0.166,-10.723c0.449,-12.011 1.722,-23.794 3.718,-35.32c-8.165,-0.719 -16.605,-1.255 -25.366,-1.561c-2.155,12.02 -3.516,24.329 -3.984,36.881c-0.135,3.59 -0.174,7.161 -0.166,10.723c2.986,34.896 11.476,83.846 34.408,129.305c40.862,71.65 114.509,122.564 201.317,131.595c0.827,-0.032 1.66,-0.034 2.48,-0.082c-3.209,-0.379 -6.403,-0.801 -9.567,-1.302c-0.991,-1.589 -1.955,-3.196 -2.903,-4.813z"/>
   </g>
   <g stroke="null" transform="matrix(0.307282829376376,0,0,0.3293030857825705,-70.79144133812588,-1260.0004680314887) " id="svg_74">
    <path stroke="null" id="svg_75" fill="#231F20" d="m802.822426,4631.732449c-0.779,-2.203 -2.474,-3.961 -4.647,-4.82c-7.192,-2.839 -14.503,-5.281 -21.913,-7.327c3.257,-35.1 -3.715,-58.991 -21.724,-74.833c-17.115,-15.055 -41.443,-20.706 -69.613,-27.249c-11.82,-2.746 -24.044,-5.584 -36.539,-9.322c-52.467,-15.69 -101.976,-1.955 -134.269,12.328c-0.152,0.068 -0.3,0.14 -0.448,0.215l-6.095,3.158c-3.958,2.052 -5.504,6.925 -3.453,10.883c2.051,3.958 6.924,5.504 10.883,3.453l5.87,-3.042c29.81,-13.149 75.25,-25.768 122.887,-11.526c12.977,3.88 25.45,6.778 37.511,9.58c52.013,12.083 84.294,19.585 79.117,82.621c-8.331,-1.636 -16.763,-2.787 -25.272,-3.436c-0.126,-0.01 -0.252,-0.016 -0.379,-0.026c-1.257,-0.094 -2.516,-0.183 -3.776,-0.255c-1.441,-0.084 -2.882,-0.153 -4.321,-0.207c-1.854,-0.069 -3.703,-0.112 -5.551,-0.136c-0.102,-0.001 -0.206,0 -0.308,-0.001c-25.916,-0.288 -51.245,3.959 -75.474,12.667c-0.121,-0.205 -0.252,-0.403 -0.374,-0.606c-0.352,-0.587 -0.715,-1.165 -1.075,-1.744c-0.428,-0.689 -0.856,-1.379 -1.297,-2.058c-0.282,-0.435 -0.574,-0.86 -0.861,-1.291c-0.539,-0.808 -1.078,-1.618 -1.635,-2.413c-0.109,-0.156 -0.223,-0.307 -0.333,-0.462c-4.984,-7.048 -10.674,-13.585 -17.036,-19.529c3.03,-1.67 6.92,-3.56 11.7,-5.406c0.252,-0.077 0.493,-0.177 0.736,-0.278c13.359,-5.052 33.379,-9.648 60.506,-8.197c4.439,0.238 8.256,-3.176 8.494,-7.63c0.239,-4.453 -3.178,-8.255 -7.63,-8.494c-21.277,-1.142 -38.756,1.151 -52.576,4.678l5.474,-19.143c1.226,-4.286 -1.256,-8.756 -5.542,-9.981c-4.283,-1.225 -8.756,1.255 -9.98,5.542l-8.508,29.759c-7.123,2.989 -12.43,6.019 -15.978,8.325c-9.572,-6.763 -20.021,-12.125 -31.021,-15.993c-0.16,-0.057 -0.321,-0.113 -0.481,-0.169c-1.193,-0.414 -2.39,-0.816 -3.595,-1.195c-0.197,-0.062 -0.395,-0.118 -0.592,-0.18c-2.026,-0.625 -4.069,-1.198 -6.127,-1.721c-0.546,-0.14 -1.089,-0.286 -1.637,-0.419c-0.828,-0.199 -1.66,-0.38 -2.492,-0.562c-0.816,-0.18 -1.633,-0.352 -2.453,-0.516c-0.738,-0.146 -1.478,-0.29 -2.22,-0.423c-1.07,-0.193 -2.146,-0.366 -3.224,-0.532c-0.52,-0.08 -1.038,-0.17 -1.559,-0.243c-1.593,-0.224 -3.194,-0.415 -4.8,-0.579c-0.466,-0.047 -0.934,-0.082 -1.402,-0.124c-1.223,-0.111 -2.45,-0.207 -3.68,-0.281c-0.272,-0.017 -0.543,-0.047 -0.815,-0.062c-0.584,-0.356 -1.167,-0.698 -1.751,-1.047c-0.475,-0.284 -0.949,-0.572 -1.423,-0.85c-0.901,-0.531 -1.801,-1.048 -2.7,-1.564c-1.606,-0.921 -3.209,-1.819 -4.807,-2.688c-0.07,-0.038 -0.14,-0.077 -0.21,-0.115c-1.178,-0.639 -2.352,-1.257 -3.525,-1.868c-0.034,-0.018 -0.069,-0.036 -0.102,-0.054c-42.192,-21.931 -81.671,-25.637 -117.555,-10.959c-33.724,13.795 -56.711,41.029 -70.056,61.446c-2.439,3.732 -1.391,8.735 2.341,11.175c3.731,2.438 8.734,1.391 11.175,-2.341c23.717,-36.287 74.408,-87.485 157.965,-49.233c0.059,0.027 0.119,0.056 0.179,0.084c-17.23,3.236 -33.599,10.058 -48.315,20.232c-0.341,0.236 -0.672,0.487 -1.01,0.726c-0.251,0.177 -0.498,0.358 -0.748,0.537c-0.947,0.679 -1.886,1.368 -2.814,2.073c-0.495,0.376 -0.984,0.759 -1.474,1.141c-0.625,0.491 -1.248,0.983 -1.863,1.484c-0.762,0.619 -1.516,1.25 -2.264,1.887c-0.286,0.244 -0.572,0.489 -0.856,0.736c-13.171,11.414 -24.04,25.58 -31.656,41.823c-0.127,0.269 -0.252,0.538 -0.377,0.807c-0.449,0.976 -0.888,1.958 -1.313,2.948c-0.105,0.245 -0.222,0.485 -0.326,0.732c-20.079,-5.807 -41.516,-10.05 -64.014,-12.689c-0.182,-0.022 -0.366,-0.042 -0.549,-0.064c-1.972,-0.229 -3.953,-0.445 -5.941,-0.649c-0.603,-0.062 -1.205,-0.125 -1.811,-0.185c-1.794,-0.178 -3.596,-0.343 -5.405,-0.501c-1.403,-0.123 -2.82,-0.235 -4.241,-0.346c-0.842,-0.066 -1.681,-0.137 -2.525,-0.197c-0.037,-0.003 -0.073,0 -0.11,-0.002c-5.936,-0.431 -12.006,-0.772 -18.246,-0.989c-4.039,-0.142 -7.518,2.691 -8.228,6.644c-2.253,12.554 -3.634,25.341 -4.108,38.001c-0.125,3.341 -0.181,6.954 -0.171,11.045c0.001,0.224 0.011,0.447 0.029,0.67c2.933,34.276 11.428,85.043 35.243,132.253c0.062,0.123 0.127,0.244 0.196,0.364c43.292,75.912 120.86,126.613 207.495,135.626c0.278,0.028 0.557,0.043 0.835,0.043c0.107,0 0.212,-0.002 0.319,-0.006c0.292,-0.012 0.586,-0.019 0.878,-0.025c0.321,-0.009 0.638,-0.024 0.958,-0.036c6.176,0.718 12.266,1.217 18.174,1.438c3.08,0.114 6.15,0.172 9.214,0.172c49.561,-0.001 96.937,-15.036 137.537,-43.745c3.64,-2.575 4.506,-7.612 1.931,-11.253c-2.576,-3.642 -7.61,-4.507 -11.253,-1.931c-40.192,28.421 -87.501,42.461 -136.826,40.621c-5.599,-0.209 -11.216,-0.647 -16.978,-1.321c-0.174,-0.032 -0.349,-0.067 -0.527,-0.088c-1.992,-0.236 -3.846,-0.471 -5.594,-0.716c-4.982,-8.317 -9.327,-16.933 -13.022,-25.788c-0.006,-0.014 -0.012,-0.028 -0.018,-0.043c-0.447,-1.071 -0.883,-2.145 -1.31,-3.223c-0.015,-0.039 -0.032,-0.077 -0.047,-0.116c-0.273,-0.69 -0.535,-1.383 -0.801,-2.076c-0.165,-0.429 -0.335,-0.858 -0.496,-1.288c-0.213,-0.568 -0.415,-1.139 -0.623,-1.709c-0.203,-0.556 -0.411,-1.112 -0.609,-1.671c-0.137,-0.385 -0.265,-0.773 -0.399,-1.159c-3.805,-10.943 -6.655,-22.195 -8.508,-33.655c-0.06,-0.377 -0.114,-0.755 -0.172,-1.131c-0.126,-0.809 -0.254,-1.62 -0.37,-2.432c-0.1,-0.7 -0.189,-1.4 -0.282,-2.101c-0.066,-0.493 -0.137,-0.985 -0.198,-1.479c-0.09,-0.728 -0.17,-1.457 -0.253,-2.186c-0.053,-0.468 -0.112,-0.934 -0.163,-1.403c-0.123,-1.145 -0.234,-2.293 -0.336,-3.441c-0.004,-0.053 -0.011,-0.105 -0.015,-0.159c-0.194,-2.187 -0.347,-4.38 -0.468,-6.578c-0.012,-0.219 -0.029,-0.437 -0.04,-0.656c-0.247,-4.728 -0.326,-9.478 -0.241,-14.244c0.024,-1.326 0.058,-2.653 0.108,-3.982c0.074,-1.975 0.183,-3.947 0.315,-5.916c0.032,-0.477 0.073,-0.952 0.108,-1.428c0.116,-1.569 0.247,-3.137 0.4,-4.701c0.041,-0.417 0.083,-0.833 0.126,-1.249c0.189,-1.817 0.398,-3.631 0.636,-5.439c0.014,-0.107 0.027,-0.214 0.041,-0.322c1.668,-12.501 4.507,-24.81 8.458,-36.739c0.023,-0.068 0.046,-0.135 0.068,-0.202c0.565,-1.7 1.16,-3.389 1.771,-5.071c0.182,-0.502 0.365,-1.002 0.551,-1.502c0.439,-1.182 0.898,-2.357 1.358,-3.531c0.297,-0.754 0.588,-1.51 0.893,-2.259c0.167,-0.409 0.346,-0.814 0.515,-1.222c31.336,-75.169 106.931,-126.855 192.969,-123.617c1.564,0.058 3.13,0.139 4.696,0.236c0.266,0.016 0.53,0.037 0.795,0.054c1.441,0.095 2.883,0.2 4.325,0.326c0.06,0.005 0.121,0.011 0.181,0.016c9.892,0.876 19.792,2.498 29.545,4.848c0.235,0.057 0.471,0.097 0.709,0.132c7.617,1.864 15.131,4.174 22.513,6.933c8.545,25.5 12.363,52.053 11.353,78.992c-2.308,61.686 -29.107,118.127 -75.462,158.928c-3.347,2.945 -3.672,8.047 -0.727,11.394c2.946,3.347 8.047,3.672 11.394,0.727c24.096,-21.208 43.378,-46.548 57.311,-75.317c14.425,-29.785 22.372,-61.792 23.62,-95.127c1.132,-30.209 -3.399,-59.975 -13.469,-88.468zm-367.537,12.769c16.913,-38.55 54.612,-64.348 96.911,-65.933c0.177,-0.006 0.355,-0.005 0.532,-0.011c1.187,-0.039 2.377,-0.067 3.57,-0.067c1.408,0.001 2.821,0.025 4.239,0.079c1.464,0.055 2.921,0.15 4.377,0.262c0.417,0.032 0.833,0.069 1.249,0.105c1.169,0.103 2.336,0.227 3.498,0.367c0.321,0.039 0.643,0.07 0.963,0.112c1.348,0.175 2.69,0.381 4.027,0.606c0.548,0.093 1.093,0.194 1.637,0.294c0.848,0.155 1.693,0.323 2.536,0.498c0.616,0.128 1.233,0.251 1.845,0.39c1.151,0.259 2.296,0.539 3.436,0.835c0.826,0.215 1.646,0.448 2.466,0.681c0.431,0.123 0.86,0.246 1.29,0.375c16.969,5.067 32.482,14.148 45.198,26.406c0.077,0.074 0.153,0.15 0.23,0.224c2.149,2.084 4.212,4.263 6.193,6.524c0.336,0.384 0.672,0.769 1.002,1.157c0.508,0.595 1.011,1.196 1.507,1.803c0.45,0.552 0.889,1.112 1.328,1.672c0.601,0.766 1.192,1.54 1.774,2.323c0.534,0.72 1.065,1.442 1.58,2.175c0.33,0.468 0.653,0.942 0.977,1.417c0.527,0.774 1.044,1.553 1.551,2.341c0.243,0.377 0.492,0.751 0.731,1.132c0.063,0.101 0.123,0.207 0.186,0.308c-36.916,16.525 -68.883,43.405 -91.558,76.951c-13.337,-14.534 -45.244,-43.21 -103.275,-63.026l0,0zm-81.227,160.677c-22.506,-44.702 -30.615,-93.031 -33.451,-125.839c-0.005,-3.736 0.047,-7.032 0.161,-10.068c0.357,-9.584 1.27,-19.248 2.715,-28.816c3.964,0.197 7.843,0.453 11.673,0.74c1.452,0.108 2.902,0.222 4.345,0.342c0.933,0.079 1.858,0.164 2.783,0.248c1.116,0.101 2.235,0.2 3.346,0.309c52.477,5.175 91.674,18.574 119.276,32.137c37.291,18.459 57.501,39.2 64.745,47.657c-3.631,6.409 -6.904,13.01 -9.855,19.75c-0.065,0.146 -0.128,0.295 -0.192,0.442c-0.618,1.42 -1.228,2.843 -1.815,4.276c-0.313,0.759 -0.61,1.526 -0.915,2.29c-0.368,0.929 -0.747,1.854 -1.102,2.787c-0.728,1.902 -1.424,3.818 -2.099,5.746c-0.001,0.004 -0.003,0.01 -0.004,0.014c-0.707,2.019 -1.378,4.056 -2.027,6.102c-0.006,0.022 -0.013,0.043 -0.02,0.063c-3.818,12.062 -6.609,24.59 -8.273,37.485c-0.036,0.275 -0.07,0.548 -0.104,0.822c-0.215,1.723 -0.411,3.454 -0.586,5.19c-0.045,0.445 -0.093,0.889 -0.135,1.335c-0.153,1.614 -0.284,3.232 -0.402,4.857c-0.036,0.481 -0.078,0.962 -0.11,1.443c-0.135,2.047 -0.247,4.1 -0.324,6.162c-0.052,1.395 -0.09,2.789 -0.115,4.182c-6.541,-2.993 -12.726,-6.16 -18.553,-9.425l-13.057,-62.676c-0.908,-4.366 -5.184,-7.162 -9.55,-6.257c-4.366,0.91 -7.167,5.185 -6.257,9.55l9.933,47.679c-33.37,-22.669 -50.592,-45.711 -50.959,-46.209c-2.628,-3.602 -7.676,-4.394 -11.278,-1.767c-3.604,2.625 -4.396,7.676 -1.771,11.28c1.433,1.966 35.111,47.427 101.893,75.642c0.129,2.058 0.281,4.113 0.468,6.161c0.004,0.051 0.008,0.101 0.013,0.152c0.195,2.116 0.429,4.227 0.687,6.333c0.04,0.33 0.078,0.66 0.119,0.99c0.255,2.015 0.54,4.024 0.853,6.028c0.059,0.382 0.121,0.763 0.181,1.144c0.324,2.012 0.671,4.019 1.051,6.019c0.055,0.287 0.114,0.575 0.17,0.862c0.393,2.021 0.809,4.038 1.259,6.046c0.023,0.101 0.043,0.203 0.066,0.305c0.461,2.041 0.958,4.071 1.478,6.097c0.087,0.339 0.171,0.679 0.26,1.018c0.509,1.946 1.047,3.884 1.611,5.815c0.111,0.378 0.223,0.756 0.335,1.133c0.579,1.945 1.182,3.884 1.816,5.813c0.089,0.27 0.182,0.538 0.272,0.808c0.64,1.922 1.306,3.837 2.001,5.742c0.052,0.141 0.1,0.282 0.152,0.423c0.716,1.947 1.467,3.882 2.239,5.808c0.137,0.342 0.272,0.685 0.411,1.027c0.757,1.861 1.541,3.714 2.352,5.555c0.158,0.361 0.319,0.719 0.479,1.079c0.833,1.867 1.687,3.723 2.574,5.568c0.115,0.239 0.235,0.477 0.351,0.716c0.885,1.823 1.794,3.638 2.733,5.44c0.061,0.117 0.117,0.238 0.179,0.355c-71.986,-14.277 -135.166,-59.401 -172.026,-123.91z"/>
    <path stroke="null" id="svg_76" fill="#231F20" d="m552.737426,4918.979449c1.457,2.712 4.24,4.251 7.117,4.251c1.29,0 2.6,-0.31 3.816,-0.964c25.029,-13.456 46.642,-28.486 65.205,-43.853c0.116,-0.077 0.24,-0.137 0.353,-0.221c0.38,-0.283 0.721,-0.598 1.036,-0.931c24.248,-20.261 43.195,-41.049 57.588,-59.557c0.149,-0.018 0.298,-0.032 0.448,-0.058l42.684,-7.507c4.392,-0.773 7.326,-4.958 6.553,-9.35c-0.772,-4.391 -4.95,-7.323 -9.35,-6.553l-26.65,4.687c25.895,-38.023 35.343,-66.939 35.734,-68.158c1.364,-4.245 -0.973,-8.792 -5.218,-10.155c-4.248,-1.367 -8.792,0.972 -10.155,5.218c-0.284,0.885 -23.381,70.419 -95.635,133.628c-7.862,-14.049 -22.372,-46.847 -15.691,-88.592c0.705,-4.403 -2.293,-8.544 -6.695,-9.247c-4.404,-0.707 -8.544,2.294 -9.247,6.695c-7.928,49.525 10.297,87.117 19.027,101.695c-16.775,13.418 -35.893,26.347 -57.634,38.036c-3.925,2.113 -5.398,7.008 -3.286,10.936z"/>
    <path stroke="null" id="svg_77" fill="#231F20" d="m546.077426,4615.550449c-0.374,-4.443 -4.287,-7.73 -8.722,-7.368c-31.877,2.681 -51.149,18.662 -61.702,31.595c-2.819,3.455 -2.305,8.541 1.15,11.359c1.499,1.224 3.305,1.818 5.099,1.818c2.342,0 4.664,-1.013 6.259,-2.969c12.478,-15.29 29.484,-23.942 50.547,-25.714c4.444,-0.373 7.744,-4.277 7.369,-8.721z"/>
   </g>
   <g stroke="null" transform="matrix(0.307282829376376,0,0,0.3293030857825705,-70.79144133812588,-1260.0004680314887) " id="svg_78"/>
   <g stroke="null" transform="matrix(0.307282829376376,0,0,0.3293030857825705,-70.79144133812588,-1260.0004680314887) " id="svg_79"/>
   <g stroke="null" transform="matrix(0.307282829376376,0,0,0.3293030857825705,-70.79144133812588,-1260.0004680314887) " id="svg_80"/>
   <g stroke="null" transform="matrix(0.307282829376376,0,0,0.3293030857825705,-70.79144133812588,-1260.0004680314887) " id="svg_81"/>
   <g stroke="null" transform="matrix(0.307282829376376,0,0,0.3293030857825705,-70.79144133812588,-1260.0004680314887) " id="svg_82"/>
   <g stroke="null" transform="matrix(0.307282829376376,0,0,0.3293030857825705,-70.79144133812588,-1260.0004680314887) " id="svg_83"/>
   <g stroke="null" transform="matrix(0.307282829376376,0,0,0.3293030857825705,-70.79144133812588,-1260.0004680314887) " id="svg_84"/>
   <g stroke="null" transform="matrix(0.307282829376376,0,0,0.3293030857825705,-70.79144133812588,-1260.0004680314887) " id="svg_85"/>
   <g stroke="null" transform="matrix(0.307282829376376,0,0,0.3293030857825705,-70.79144133812588,-1260.0004680314887) " id="svg_86"/>
   <g stroke="null" transform="matrix(0.307282829376376,0,0,0.3293030857825705,-70.79144133812588,-1260.0004680314887) " id="svg_87"/>
   <g stroke="null" transform="matrix(0.307282829376376,0,0,0.3293030857825705,-70.79144133812588,-1260.0004680314887) " id="svg_88"/>
   <g stroke="null" transform="matrix(0.307282829376376,0,0,0.3293030857825705,-70.79144133812588,-1260.0004680314887) " id="svg_89"/>
   <g stroke="null" transform="matrix(0.307282829376376,0,0,0.3293030857825705,-70.79144133812588,-1260.0004680314887) " id="svg_90"/>
   <g stroke="null" transform="matrix(0.307282829376376,0,0,0.3293030857825705,-70.79144133812588,-1260.0004680314887) " id="svg_91"/>
   <g stroke="null" transform="matrix(0.307282829376376,0,0,0.3293030857825705,-70.79144133812588,-1260.0004680314887) " id="svg_92"/>
  </g>
  <g stroke="null" transform="rotate(-90 170.00003051757815,231.90480041503906) " id="svg_149">
   <path stroke="null" id="svg_126" fill="#EB573B" d="m269.941776,116.138076l-19.90388,-28.998368c-1.658657,-2.485574 -1.658657,-5.799674 -0.414664,-8.285248c1.658657,-2.485574 4.146642,-4.142624 7.049291,-4.142624l57.638319,2.899837c2.902649,0 5.805298,2.071312 6.634627,4.556886c1.243992,2.899837 0.829328,5.799674 -1.243992,8.285248l-23.635857,27.341318l-26.123842,-1.65705z"/>
   <path stroke="null" id="svg_127" fill="#F1705A" d="m288.186999,112.823977l-19.90388,-28.998368c-1.658657,-2.485574 -1.658657,-5.799674 -0.414664,-8.285248c0,0 0,0 0.414664,-0.414262l-11.195932,-0.414262c-2.902649,0 -5.805298,1.242787 -7.049291,4.142624c-1.658657,2.485574 -1.243992,5.799674 0.414664,8.285248l19.90388,28.998368l26.538506,2.071312l3.731977,-4.142624l-12.439925,-1.242787z"/>
   <path stroke="null" id="svg_128" fill="#EB573B" d="m100.344133,387.894211c-12.025261,0 -23.221193,-4.556886 -31.929141,-12.842134c-9.122612,-8.69951 -14.513246,-20.298858 -14.92791,-32.72673c-0.829328,-25.684269 19.489216,-47.225914 45.198394,-48.468701l1.243992,0c20.318544,-0.414262 60.126304,-5.799674 94.128765,-38.940666c34.417125,-35.626566 38.563767,-77.467069 38.978431,-94.037565l0,-1.242787c0.829328,-25.270006 21.977201,-45.154602 46.85705,-45.154602c0.414664,0 0.829328,0 1.658657,0c12.439925,0.414262 24.050521,5.799674 32.758469,14.913446c8.707947,9.113773 12.854589,21.127382 12.854589,33.555254c-1.658657,48.054438 -7.878619,96.108877 -68.419587,156.591187s-108.642011,66.696246 -156.743053,68.353296c-0.829328,0 -1.243992,0 -1.658657,0z"/>
   <path stroke="null" id="svg_129" fill="#F1705A" d="m71.732306,358.48158c-0.829328,-25.684269 19.489216,-47.225914 45.198394,-48.468701l1.243992,0c20.318544,-0.414262 60.126304,-5.799674 94.128765,-38.940666c34.417125,-35.626566 38.563767,-77.467069 38.978431,-94.037565l0,-1.242787c0.829328,-25.270006 21.977201,-45.154602 46.85705,-45.154602c0.414664,0 0.829328,0 1.658657,0c6.634627,0.414262 13.269253,1.65705 19.074551,4.556886c-1.243992,-2.071312 -2.902649,-4.142624 -4.561306,-5.799674c-8.707947,-9.113773 -20.318544,-14.499184 -32.758469,-14.913446c-0.414664,0 -0.829328,0 -1.658657,0c-24.87985,0 -46.027722,19.884595 -46.85705,45.154602l0,1.242787c-0.414664,16.570496 -4.561306,58.410998 -38.978431,94.037565c-34.417125,33.140992 -73.810221,38.940666 -94.128765,38.940666l-1.243992,0c-25.709178,0.828525 -46.027722,22.784432 -45.198394,48.468701c0.414664,12.427872 5.805298,24.027219 14.92791,32.72673c3.317313,3.314099 7.463955,5.799674 11.610597,7.870986c-4.97597,-7.042461 -7.878619,-15.327709 -8.293283,-24.441482z"/>
   <path stroke="null" id="svg_130" fill="#EB573B" d="m56.389732,357.653055l-27.367835,23.612957c-1.243992,1.242787 -3.317313,2.071312 -4.97597,2.071312c-1.243992,0 -2.073321,0 -2.902649,-0.414262c-2.902649,-1.242787 -4.561306,-3.728362 -4.561306,-6.628198l-3.317313,-57.996736c0,-2.899837 1.243992,-5.799674 4.146642,-7.042461c2.487985,-1.65705 5.805298,-1.242787 8.293283,0.414262l29.026491,19.884595l1.658657,26.098531z"/>
   <path stroke="null" id="svg_131" fill="#F1705A" d="m16.996637,329.897475c2.487985,-1.65705 5.805298,-1.242787 8.293283,0.414262l29.026491,19.884595l0.829328,9.113773l1.243992,-1.242787l-2.073321,-26.512794l-29.026491,-19.884595c-2.487985,-1.65705 -5.805298,-1.65705 -8.293283,-0.414262c-2.487985,1.65705 -4.146642,4.142624 -4.146642,7.042461l0.829328,14.913446c0.829328,-1.242787 2.073321,-2.485574 3.317313,-3.314099z"/>
   <path stroke="null" id="svg_132" fill="#561900" d="m18.655293,388.722735c1.658657,0.828525 3.731977,1.242787 5.390634,1.242787c3.317313,0 6.634627,-1.242787 9.537276,-3.314099l20.733208,-18.227546c2.487985,4.142624 5.805298,8.285248 9.537276,12.01361c9.95194,9.113773 22.806529,14.499184 36.490446,14.499184l0,0l1.658657,0c49.345035,-1.65705 98.690071,-8.285248 160.889695,-70.424608s68.834251,-111.436586 70.078243,-160.733811c0.414664,-14.084922 -4.561306,-27.755581 -14.513246,-38.112141c-3.731977,-3.728362 -7.463955,-7.042461 -12.025261,-9.528035l18.245223,-20.71312c3.731977,-4.142624 4.561306,-9.942298 2.487985,-14.913446s-7.049291,-8.285248 -12.439925,-8.69951l-57.638319,-2.899837c-5.390634,-0.414262 -10.366604,2.485574 -13.269253,7.042461c-2.487985,4.556886 -2.487985,10.35656 0.414664,14.913446l14.92791,21.955907c-18.659887,7.456723 -32.343805,25.684269 -33.173133,47.225914l0,1.242787c-0.414664,15.741971 -4.146642,55.925424 -36.90511,89.480678c-32.758469,31.898205 -70.492908,36.869354 -89.982123,37.283616l-1.243992,0c-21.562536,0.828525 -39.393095,14.499184 -47.271715,33.140992l-21.562536,-14.913446c-4.561306,-2.899837 -10.366604,-3.314099 -14.92791,-0.414262c-4.561306,2.485574 -7.463955,7.870986 -7.049291,13.256397l2.902649,57.168211c0.414664,5.385411 3.731977,10.35656 8.707947,12.427872zm236.773237,-305.311389c-0.414664,-0.414262 -0.414664,-0.828525 0,-1.65705c0.414664,-0.414262 0.829328,-0.828525 1.243992,-0.828525l57.638319,2.899837c0.414664,0 0.829328,0.414262 1.243992,0.828525c0.414664,0.414262 0,1.242787 -0.414664,1.65705l-20.733208,24.027219c-4.146642,-1.242787 -8.293283,-2.071312 -12.854589,-2.071312l-1.658657,0c-2.487985,0 -4.561306,0.414262 -7.049291,0.414262l-17.415895,-25.270006zm-156.743053,217.48776l1.243992,0c21.562536,-0.414262 62.614289,-6.213936 98.690071,-41.011978c36.075782,-37.283616 40.637088,-81.19543 40.637088,-98.594451l0,-1.242787c0.829328,-21.541645 19.074551,-38.940666 40.222424,-38.940666l1.243992,0c4.561306,0 9.122612,1.242787 13.269253,2.485574l0,0c5.805298,2.071312 10.781268,5.385411 14.92791,9.942298c7.463955,7.870986 11.195932,18.227546 10.781268,28.998368c-1.658657,46.811651 -7.878619,93.623302 -66.346266,152.034301c-58.882311,58.825261 -105.739361,65.039197 -152.181748,66.281984l-1.243992,0l0,0c-10.366604,0 -20.318544,-3.728362 -27.782499,-10.770822c-7.878619,-7.456723 -12.439925,-17.399021 -12.854589,-28.169843c0,-21.541645 17.415895,-40.183453 39.393095,-41.011978zm-78.371527,15.741971c0.414664,-0.414262 1.243992,-0.414262 1.658657,0l25.709178,17.399021c-0.414664,2.899837 -0.414664,5.799674 -0.414664,8.69951c0,4.556886 0.829328,8.69951 2.073321,12.842134l-24.465186,21.127382c-0.414664,0.414262 -0.414664,0.414262 -1.658657,0.414262c-0.414664,-0.414262 -0.829328,-0.828525 -0.829328,-1.242787l-2.902649,-57.582474c0,-0.828525 0.414664,-1.242787 0.829328,-1.65705z"/>
   <path stroke="null" id="svg_133" fill="#F1705A" d="m228.060696,314.984028c1.658657,0 3.317313,-0.828525 4.561306,-2.071312c58.052983,-57.996736 64.272945,-103.979862 65.516938,-150.377251c0,-3.728362 -2.487985,-6.628198 -6.219962,-6.628198c-3.317313,0 -6.634627,2.485574 -6.634627,6.213936c-1.243992,43.497552 -7.049291,86.995104 -61.78496,141.677741c-2.487985,2.485574 -2.487985,6.628198 0,9.113773c1.243992,1.242787 2.902649,2.071312 4.561306,2.071312z"/>
   <g stroke="null" transform="matrix(1.0366604064252691,0,0,1.0356560007379965,-873.5266420102612,-783.4133938821398) " id="svg_134"/>
   <g stroke="null" transform="matrix(1.0366604064252691,0,0,1.0356560007379965,-873.5266420102612,-783.4133938821398) " id="svg_135"/>
   <g stroke="null" transform="matrix(1.0366604064252691,0,0,1.0356560007379965,-873.5266420102612,-783.4133938821398) " id="svg_136"/>
   <g stroke="null" transform="matrix(1.0366604064252691,0,0,1.0356560007379965,-873.5266420102612,-783.4133938821398) " id="svg_137"/>
   <g stroke="null" transform="matrix(1.0366604064252691,0,0,1.0356560007379965,-873.5266420102612,-783.4133938821398) " id="svg_138"/>
   <g stroke="null" transform="matrix(1.0366604064252691,0,0,1.0356560007379965,-873.5266420102612,-783.4133938821398) " id="svg_139"/>
   <g stroke="null" transform="matrix(1.0366604064252691,0,0,1.0356560007379965,-873.5266420102612,-783.4133938821398) " id="svg_140"/>
   <g stroke="null" transform="matrix(1.0366604064252691,0,0,1.0356560007379965,-873.5266420102612,-783.4133938821398) " id="svg_141"/>
   <g stroke="null" transform="matrix(1.0366604064252691,0,0,1.0356560007379965,-873.5266420102612,-783.4133938821398) " id="svg_142"/>
   <g stroke="null" transform="matrix(1.0366604064252691,0,0,1.0356560007379965,-873.5266420102612,-783.4133938821398) " id="svg_143"/>
   <g stroke="null" transform="matrix(1.0366604064252691,0,0,1.0356560007379965,-873.5266420102612,-783.4133938821398) " id="svg_144"/>
   <g stroke="null" transform="matrix(1.0366604064252691,0,0,1.0356560007379965,-873.5266420102612,-783.4133938821398) " id="svg_145"/>
   <g stroke="null" transform="matrix(1.0366604064252691,0,0,1.0356560007379965,-873.5266420102612,-783.4133938821398) " id="svg_146"/>
   <g stroke="null" transform="matrix(1.0366604064252691,0,0,1.0356560007379965,-873.5266420102612,-783.4133938821398) " id="svg_147"/>
   <g stroke="null" transform="matrix(1.0366604064252691,0,0,1.0356560007379965,-873.5266420102612,-783.4133938821398) " id="svg_148"/>
  </g>
 </g>
</svg>