<svg width="400" height="400" xmlns="http://www.w3.org/2000/svg">
 <!-- Created with Method Draw - http://github.com/duopixel/Method-Draw/ -->

 <g>
  <title>background</title>
  <rect fill="none" id="canvas_background" height="402" width="402" y="-1" x="-1"/>
  <g display="none" overflow="visible" y="0" x="0" height="100%" width="100%" id="canvasGrid">
   <rect fill="url(#gridpattern)" stroke-width="0" y="0" x="0" height="100%" width="100%"/>
  </g>
 </g>
 <g>
  <title>Layer 1</title>
  <ellipse id="svg_5" cy="191.666446" cx="341.668922" fill-opacity="null" stroke-opacity="null" stroke-width="1.5" stroke="#000" fill="#fff"/>
  <g stroke="null" transform="rotate(-81.8157958984375 128.55215454101565,243.49859619140628) " id="svg_237">
   <path stroke="null" id="svg_218" fill="#DA2F47" d="m15.160545,323.710522c40.55602,4.351172 78.441144,-12.832557 111.7236,-46.955156c39.908936,-40.921836 41.468075,-102.659929 41.468075,-110.55652s93.801033,-24.133282 91.229988,39.484547c-3.557849,88.413984 -61.613042,165.408798 -165.183935,173.069027c-49.612414,3.671832 -80.27362,-7.328261 -94.439192,-18.518507c-22.302102,-17.618209 -6.220936,-38.821142 15.201465,-36.523392"/>
   <g stroke="null" transform="matrix(0.5578314568734621,0,0,0.5311489030966512,-1214.8258542422534,-1128.6688347490856) " id="svg_219">
    <path stroke="null" id="svg_220" fill="#77B255" d="m2462.027809,2446.974933c6.631,-23.09 49.227,-56.898 106.556,-43.979c63.187,14.243 89.399,44.157 89.399,98.662c0,54.519 -53.479,7.27 -60.912,-9.456s-38.403,33.452 -65.462,-19.031c-9.16,-17.751 -81.208,14.275 -69.581,-26.196"/>
    <path stroke="null" id="svg_221" fill="#77B255" d="m2534.811809,2341.761933c16.92,17.246 45.123,40.618 32.783,78.293c-12.355,37.674 18.986,37.036 26.746,14.14c7.731,-22.881 10.065,-72.123 -6.467,-94.112c-16.517,-21.99 -65.862,-11.375 -53.062,1.679"/>
   </g>
   <g stroke="null" transform="matrix(0.5578314568734621,0,0,0.5311489030966512,-1214.8258542422534,-1128.6688347490856) " id="svg_222"/>
   <g stroke="null" transform="matrix(0.5578314568734621,0,0,0.5311489030966512,-1214.8258542422534,-1128.6688347490856) " id="svg_223"/>
   <g stroke="null" transform="matrix(0.5578314568734621,0,0,0.5311489030966512,-1214.8258542422534,-1128.6688347490856) " id="svg_224"/>
   <g stroke="null" transform="matrix(0.5578314568734621,0,0,0.5311489030966512,-1214.8258542422534,-1128.6688347490856) " id="svg_225"/>
   <g stroke="null" transform="matrix(0.5578314568734621,0,0,0.5311489030966512,-1214.8258542422534,-1128.6688347490856) " id="svg_226"/>
   <g stroke="null" transform="matrix(0.5578314568734621,0,0,0.5311489030966512,-1214.8258542422534,-1128.6688347490856) " id="svg_227"/>
   <g stroke="null" transform="matrix(0.5578314568734621,0,0,0.5311489030966512,-1214.8258542422534,-1128.6688347490856) " id="svg_228"/>
   <g stroke="null" transform="matrix(0.5578314568734621,0,0,0.5311489030966512,-1214.8258542422534,-1128.6688347490856) " id="svg_229"/>
   <g stroke="null" transform="matrix(0.5578314568734621,0,0,0.5311489030966512,-1214.8258542422534,-1128.6688347490856) " id="svg_230"/>
   <g stroke="null" transform="matrix(0.5578314568734621,0,0,0.5311489030966512,-1214.8258542422534,-1128.6688347490856) " id="svg_231"/>
   <g stroke="null" transform="matrix(0.5578314568734621,0,0,0.5311489030966512,-1214.8258542422534,-1128.6688347490856) " id="svg_232"/>
   <g stroke="null" transform="matrix(0.5578314568734621,0,0,0.5311489030966512,-1214.8258542422534,-1128.6688347490856) " id="svg_233"/>
   <g stroke="null" transform="matrix(0.5578314568734621,0,0,0.5311489030966512,-1214.8258542422534,-1128.6688347490856) " id="svg_234"/>
   <g stroke="null" transform="matrix(0.5578314568734621,0,0,0.5311489030966512,-1214.8258542422534,-1128.6688347490856) " id="svg_235"/>
   <g stroke="null" transform="matrix(0.5578314568734621,0,0,0.5311489030966512,-1214.8258542422534,-1128.6688347490856) " id="svg_236"/>
  </g>
  <g stroke="null" transform="rotate(-96.38427734375 206.05685424804688,203.0319519042969) " id="svg_260">
   <path stroke="null" id="svg_242" fill="#F6C358" d="m304.22353,344.89577c-39.684067,26.149112 -84.1953,41.317707 -129.665906,43.375222c-105.200183,4.823189 -154.730803,-59.792734 -167.098738,-79.017515c-3.10324,-4.842466 -4.723263,-10.85877 -3.947453,-16.847682c0.019915,-0.172474 0.03983,-0.344948 0.122086,-0.543801c0.28227,-1.676043 0.669309,-3.231354 1.20441,-4.763331c3.800257,-11.731287 14.652072,-18.8078 25.65195,-17.219009c58.76501,8.81343 278.46817,27.35846 321.201793,-178.678159l0.379246,0.095368l24.864884,4.329101l15.608847,2.698713c0.640736,1.470089 1.303984,3.015254 2.091916,4.508677c0.170574,0.341905 0.277941,0.711202 0.386173,1.079485c45.471471,124.181396 -31.252328,201.833322 -90.79921,240.982928z"/>
   <path stroke="null" id="svg_243" fill="#FCD462" d="m376.935804,95.624951c14.310924,97.858796 -50.625066,161.311025 -102.520348,195.411196c-39.684067,26.149112 -84.1953,41.317707 -129.665906,43.375222c-68.614161,3.126855 -113.557458,-23.255604 -139.91162,-47.312706c3.800257,-11.731287 14.652072,-18.8078 25.65195,-17.219009c58.76501,8.81343 278.46817,27.35846 321.201793,-178.678159l0.379246,0.095368l24.864884,4.328087z"/>
   <path stroke="null" id="svg_244" fill="#44C4A1" d="m392.561968,98.310476l-40.852977,-7.123183c2.345613,-10.503676 6.41342,-33.687247 1.00786,-64.224305c-0.956775,-5.404529 2.961239,-10.25714 7.60138,-9.306503c4.301589,0.880633 9.307122,1.538064 13.619102,1.127169c4.034905,-0.384516 7.483623,3.405857 7.222999,8.139766c-0.855469,15.547024 -0.334222,44.2102 11.401636,71.387055z"/>
   <g stroke="null" transform="matrix(0.8658593805984341,0,0,1.0145538909429421,-1746.5465624832532,-1931.217318680584) " id="svg_245"/>
   <g stroke="null" transform="matrix(0.8658593805984341,0,0,1.0145538909429421,-1746.5465624832532,-1931.217318680584) " id="svg_246"/>
   <g stroke="null" transform="matrix(0.8658593805984341,0,0,1.0145538909429421,-1746.5465624832532,-1931.217318680584) " id="svg_247"/>
   <g stroke="null" transform="matrix(0.8658593805984341,0,0,1.0145538909429421,-1746.5465624832532,-1931.217318680584) " id="svg_248"/>
   <g stroke="null" transform="matrix(0.8658593805984341,0,0,1.0145538909429421,-1746.5465624832532,-1931.217318680584) " id="svg_249"/>
   <g stroke="null" transform="matrix(0.8658593805984341,0,0,1.0145538909429421,-1746.5465624832532,-1931.217318680584) " id="svg_250"/>
   <g stroke="null" transform="matrix(0.8658593805984341,0,0,1.0145538909429421,-1746.5465624832532,-1931.217318680584) " id="svg_251"/>
   <g stroke="null" transform="matrix(0.8658593805984341,0,0,1.0145538909429421,-1746.5465624832532,-1931.217318680584) " id="svg_252"/>
   <g stroke="null" transform="matrix(0.8658593805984341,0,0,1.0145538909429421,-1746.5465624832532,-1931.217318680584) " id="svg_253"/>
   <g stroke="null" transform="matrix(0.8658593805984341,0,0,1.0145538909429421,-1746.5465624832532,-1931.217318680584) " id="svg_254"/>
   <g stroke="null" transform="matrix(0.8658593805984341,0,0,1.0145538909429421,-1746.5465624832532,-1931.217318680584) " id="svg_255"/>
   <g stroke="null" transform="matrix(0.8658593805984341,0,0,1.0145538909429421,-1746.5465624832532,-1931.217318680584) " id="svg_256"/>
   <g stroke="null" transform="matrix(0.8658593805984341,0,0,1.0145538909429421,-1746.5465624832532,-1931.217318680584) " id="svg_257"/>
   <g stroke="null" transform="matrix(0.8658593805984341,0,0,1.0145538909429421,-1746.5465624832532,-1931.217318680584) " id="svg_258"/>
   <g stroke="null" transform="matrix(0.8658593805984341,0,0,1.0145538909429421,-1746.5465624832532,-1931.217318680584) " id="svg_259"/>
  </g>
  <g stroke="null" id="svg_296">
   <path stroke="null" id="svg_265" fill="#70C449" d="m107.605637,255.0004c-15.424183,-4.9816 -30.051498,-0.486774 -39.349479,3.95528l-10.148744,5.992887l0.000592,0.004478c3.348564,3.427568 8.695666,5.802911 14.965192,10.003817c9.038873,0.364601 18.155034,4.330755 24.291305,10.504344c3.037635,3.056251 5.946159,8.425479 7.869185,12.432891c7.992373,-3.422451 18.808875,-6.243311 27.952575,-5.873912c4.325179,0.174944 7.487778,-1.820126 11.539636,-0.765662c3.681407,-31.580195 -15.459126,-29.257623 -37.120262,-36.254122z"/>
   <path stroke="null" id="svg_266" fill="#6AB742" d="m16.124212,286.35096l-3.713684,7.337433c10.885203,0.849136 28.541565,19.30018 27.487069,10.595814c1.104837,9.11918 1.609727,1.997629 1.481802,1.955092c5.129747,-15.739565 17.798797,-33.867905 34.049165,-33.211944c-32.711279,-21.915712 -51.802952,0.663638 -59.304352,13.323604z"/>
   <path stroke="null" id="svg_267" fill="#43A838" d="m96.365086,283.958666c-0.689968,0 -1.37579,-0.310231 -1.863801,-0.917259c-0.894589,-1.111073 -0.785319,-2.794954 0.243413,-3.760826c0.379038,-0.356285 9.505267,-8.713002 28.280384,-7.623997c1.36128,0.078997 2.406003,1.334311 2.333157,2.805188c-0.073439,1.470237 -1.233058,2.590265 -2.597299,2.519584c-16.800565,-0.969071 -24.699659,6.250667 -24.777539,6.323587c-0.466987,0.4388 -1.043835,0.653723 -1.618315,0.653723z"/>
   <path stroke="null" id="svg_268" fill="#B0E046" d="m78.455834,327.120696c7.201131,-12.921904 20.699327,-25.200319 27.793557,-32.966637c-5.808462,-12.101552 -17.307825,-20.580761 -30.820827,-21.126703c-16.250368,-0.656601 -30.400924,10.352427 -35.530967,26.091992c21.887966,12.807406 36.638765,42.022812 38.558237,28.001349z"/>
   <path stroke="null" id="svg_269" fill="#A0C638" d="m57.40797,300.256966c-0.549013,0 -1.101283,-0.196693 -1.55909,-0.600312c-1.056569,-0.930692 -1.214106,-2.610414 -0.351795,-3.751232c3.227154,-4.270948 9.120011,-9.548066 18.866619,-10.433982c1.361576,-0.124092 2.55288,0.965873 2.667184,2.433231c0.114304,1.467359 -0.894589,2.756575 -2.253204,2.880027c-6.440093,0.584961 -11.640318,3.44228 -15.455276,8.492003c-0.488604,0.645408 -1.198412,0.980265 -1.914438,0.980265z"/>
   <path stroke="null" id="svg_270" fill="#4BAA3D" d="m75.530727,394.789344c10.939689,-16.921959 -2.037626,-22.52466 0.901104,-36.484077c4.114043,-19.540689 7.076463,-24.619196 -1.438568,-35.516925c0,0 -16.795235,-26.195295 -64.492731,-29.235235c-0.797461,-0.009275 -3.627513,0.21908 -4.189555,3.851657c-0.326624,2.675339 -0.543683,5.389697 -0.638738,8.140515c-0.041161,1.185593 -0.053302,2.365108 -0.050637,3.541106c0.912653,11.524267 3.508471,27.689519 10.520675,42.701801c12.494338,23.662278 35.012751,40.475497 61.556075,43.458188c0.252889,-0.010554 0.50726,-0.011514 0.758076,-0.026865c-0.981945,-0.124732 -1.957968,-0.264496 -2.9257,-0.430165z"/>
   <path stroke="null" id="svg_271" fill="#43A838" d="m103.3154,279.901362c-0.225054,0 -0.453365,-0.033262 -0.679899,-0.103304c-1.310642,-0.404899 -2.069311,-1.880573 -1.694419,-3.29612l2.935176,-11.087705c0.3743,-1.415867 1.741798,-2.235899 3.051849,-1.83036c1.310939,0.404899 2.069903,1.880573 1.695011,3.29644l-2.935176,11.087705c-0.310041,1.169921 -1.298798,1.933344 -2.372541,1.933344z"/>
   <path stroke="null" id="svg_272" opacity="0.15" fill="#231F20" d="m21.819259,354.065662c-7.286118,-15.599801 -9.983211,-32.397029 -10.93199,-44.371609c-0.002665,-1.222053 0.009476,-2.447943 0.05271,-3.679591c0.099201,-2.858279 0.324551,-5.679139 0.664205,-8.459061c0.356533,-2.301143 1.587814,-3.285886 2.683175,-3.703578c-1.241053,-0.114497 -2.500763,-0.216522 -3.786531,-0.298717c-0.797461,-0.009275 -3.627513,0.21908 -4.189555,3.851657c-0.326624,2.675339 -0.543683,5.389697 -0.638738,8.140515c-0.041161,1.185593 -0.053302,2.365108 -0.050637,3.541106c0.912653,11.524267 3.508471,27.689519 10.520675,42.701801c8.69685,16.471325 22.252791,29.621904 38.640856,37.1007c-13.80498,-8.061518 -25.232089,-20.18002 -32.964169,-34.823224z"/>
   <path stroke="null" id="svg_273" fill="#43A838" d="m154.202738,297.412759c-0.794499,-2.630883 -2.441242,-3.782894 -3.436217,-4.254637c-5.853177,-2.202637 -12.10079,-3.522876 -18.617579,-3.785773c-35.254388,-1.423543 -64.904047,28.290471 -66.223869,66.365999c-0.495118,14.305468 3.079684,27.756363 9.605949,39.051315c2.773789,0.474301 5.597918,0.796045 8.475054,0.911822c16.100529,0.650525 31.142121,-4.575741 43.354253,-13.901848l5.386782,-4.550155c14.327342,-13.351429 23.67596,-32.850221 24.438774,-54.884269c0.301454,-8.685177 -0.770809,-17.078034 -2.983148,-24.952454z"/>
   <path stroke="null" id="svg_274" opacity="0.15" fill="#231F20" d="m71.192518,356.618828c1.278661,-36.446657 28.495666,-65.326246 61.993745,-67.194346c-0.34528,-0.019829 -0.69056,-0.038379 -1.037321,-0.052132c-35.254388,-1.423543 -64.904047,28.290471 -66.223869,66.365999c-0.495118,14.305468 3.079684,27.756363 9.605949,39.051315c1.680797,0.287523 3.382618,0.510441 5.101023,0.673552c-6.430025,-11.293673 -9.936719,-24.653097 -9.439528,-38.844388z"/>
   <g stroke="null" transform="matrix(0.2961234728613182,0,0,0.3198253487401103,-10.015102022653664,-1276.254979414487) " id="svg_275">
    <path stroke="null" id="svg_276" fill="#368C2A" d="m256.459577,5127.80918c-1.031,0 -2.08,-0.192 -3.095,-0.599c-72.252,-28.924 -108.649,-78.071 -110.164,-80.149c-2.711,-3.721 -1.892,-8.935 1.829,-11.647c3.719,-2.711 8.932,-1.893 11.644,1.825c0.535,0.724 35.494,47.512 102.888,74.492c4.274,1.711 6.352,6.563 4.64,10.837c-1.304,3.259 -4.435,5.241 -7.742,5.241z"/>
    <path stroke="null" id="svg_277" fill="#368C2A" d="m221.443577,5110.79118c-3.867,0 -7.333,-2.704 -8.153,-6.639l-14.255,-68.431c-0.939,-4.507 1.954,-8.922 6.461,-9.861c4.511,-0.935 8.922,1.954 9.861,6.462l14.256,68.431c0.939,4.507 -1.954,8.922 -6.461,9.861c-0.573,0.12 -1.146,0.177 -1.709,0.177z"/>
    <path stroke="null" id="svg_278" fill="#368C2A" d="m308.176577,5208.36718c-2.97,0 -5.844,-1.591 -7.349,-4.389c-2.181,-4.055 -0.66,-9.11 3.394,-11.289c132.471,-71.222 170.905,-186.989 171.278,-188.151c1.408,-4.384 6.104,-6.798 10.486,-5.388c4.384,1.407 6.796,6.101 5.389,10.486c-0.406,1.265 -10.258,31.437 -37.329,71.015c-24.88,36.376 -69.7,87.89 -141.928,126.722c-1.256,0.673 -2.609,0.994 -3.941,0.994z"/>
    <path stroke="null" id="svg_279" fill="#368C2A" d="m374.831577,5163.51618c-2.533,0 -5.034,-1.151 -6.669,-3.337c-1.414,-1.885 -34.456,-46.932 -24.077,-111.774c0.727,-4.546 5.006,-7.646 9.55,-6.913c4.546,0.727 7.641,5.003 6.913,9.549c-9.225,57.63 20.669,98.755 20.971,99.164c2.738,3.691 1.975,8.912 -1.711,11.657c-1.496,1.115 -3.245,1.654 -4.977,1.654z"/>
    <path stroke="null" id="svg_280" fill="#368C2A" d="m439.350577,5099.47018c-3.97,0 -7.488,-2.846 -8.199,-6.893c-0.798,-4.534 2.232,-8.856 6.767,-9.653l44.074,-7.751c4.53,-0.795 8.856,2.232 9.653,6.767c0.797,4.534 -2.233,8.856 -6.767,9.654l-44.074,7.751c-0.488,0.084 -0.973,0.125 -1.454,0.125z"/>
   </g>
   <g stroke="null" transform="matrix(0.2961234728613182,0,0,0.3198253487401103,-10.015102022653664,-1276.254979414487) " id="svg_281"/>
   <g stroke="null" transform="matrix(0.2961234728613182,0,0,0.3198253487401103,-10.015102022653664,-1276.254979414487) " id="svg_282"/>
   <g stroke="null" transform="matrix(0.2961234728613182,0,0,0.3198253487401103,-10.015102022653664,-1276.254979414487) " id="svg_283"/>
   <g stroke="null" transform="matrix(0.2961234728613182,0,0,0.3198253487401103,-10.015102022653664,-1276.254979414487) " id="svg_284"/>
   <g stroke="null" transform="matrix(0.2961234728613182,0,0,0.3198253487401103,-10.015102022653664,-1276.254979414487) " id="svg_285"/>
   <g stroke="null" transform="matrix(0.2961234728613182,0,0,0.3198253487401103,-10.015102022653664,-1276.254979414487) " id="svg_286"/>
   <g stroke="null" transform="matrix(0.2961234728613182,0,0,0.3198253487401103,-10.015102022653664,-1276.254979414487) " id="svg_287"/>
   <g stroke="null" transform="matrix(0.2961234728613182,0,0,0.3198253487401103,-10.015102022653664,-1276.254979414487) " id="svg_288"/>
   <g stroke="null" transform="matrix(0.2961234728613182,0,0,0.3198253487401103,-10.015102022653664,-1276.254979414487) " id="svg_289"/>
   <g stroke="null" transform="matrix(0.2961234728613182,0,0,0.3198253487401103,-10.015102022653664,-1276.254979414487) " id="svg_290"/>
   <g stroke="null" transform="matrix(0.2961234728613182,0,0,0.3198253487401103,-10.015102022653664,-1276.254979414487) " id="svg_291"/>
   <g stroke="null" transform="matrix(0.2961234728613182,0,0,0.3198253487401103,-10.015102022653664,-1276.254979414487) " id="svg_292"/>
   <g stroke="null" transform="matrix(0.2961234728613182,0,0,0.3198253487401103,-10.015102022653664,-1276.254979414487) " id="svg_293"/>
   <g stroke="null" transform="matrix(0.2961234728613182,0,0,0.3198253487401103,-10.015102022653664,-1276.254979414487) " id="svg_294"/>
   <g stroke="null" transform="matrix(0.2961234728613182,0,0,0.3198253487401103,-10.015102022653664,-1276.254979414487) " id="svg_295"/>
  </g>
 </g>
</svg>