<svg width="400" height="400" xmlns="http://www.w3.org/2000/svg">
 <!-- Created with Method Draw - http://github.com/duopixel/Method-Draw/ -->

 <g>
  <title>background</title>
  <rect fill="none" id="canvas_background" height="402" width="402" y="-1" x="-1"/>
  <g display="none" overflow="visible" y="0" x="0" height="100%" width="100%" id="canvasGrid">
   <rect fill="url(#gridpattern)" stroke-width="0" y="0" x="0" height="100%" width="100%"/>
  </g>
 </g>
 <g>
  <title>Layer 1</title>
  <ellipse id="svg_5" cy="191.666446" cx="341.668922" fill-opacity="null" stroke-opacity="null" stroke-width="1.5" stroke="#000" fill="#fff"/>
  <g stroke="null" transform="rotate(-84.95267486572266 144.90516662597656,228.0819091796875) " id="svg_237">
   <path stroke="null" id="svg_218" fill="#DA2F47" d="m35.23884,298.839991c39.223664,3.838347 75.864177,-11.320124 108.053229,-41.421065c38.597838,-36.098826 40.105756,-90.560525 40.105756,-97.52643s90.719459,-21.288955 88.232878,34.830935c-3.440966,77.993594 -59.588916,145.91387 -159.757273,152.671272c-47.982535,3.239074 -77.636452,-6.464559 -91.336653,-16.335932c-21.569428,-15.541743 -6.016565,-34.245718 14.702063,-32.218779"/>
   <g stroke="null" transform="matrix(0.5395054446492691,0,0,0.46854818423686756,-1161.8473960425613,-963.2007589218272) " id="svg_219">
    <path stroke="null" id="svg_220" fill="#77B255" d="m2475.943597,2406.077291c6.631,-23.09 49.227,-56.898 106.556,-43.979c63.187,14.243 89.399,44.157 89.399,98.662c0,54.519 -53.479,7.27 -60.912,-9.456s-38.403,33.452 -65.462,-19.031c-9.16,-17.751 -81.208,14.275 -69.581,-26.196"/>
    <path stroke="null" id="svg_221" fill="#77B255" d="m2548.727597,2300.864291c16.92,17.246 45.123,40.618 32.783,78.293c-12.355,37.674 18.986,37.036 26.746,14.14c7.731,-22.881 10.065,-72.123 -6.467,-94.112c-16.517,-21.99 -65.862,-11.375 -53.062,1.679"/>
   </g>
   <g stroke="null" transform="matrix(0.5395054446492691,0,0,0.46854818423686756,-1161.8473960425613,-963.2007589218272) " id="svg_222"/>
   <g stroke="null" transform="matrix(0.5395054446492691,0,0,0.46854818423686756,-1161.8473960425613,-963.2007589218272) " id="svg_223"/>
   <g stroke="null" transform="matrix(0.5395054446492691,0,0,0.46854818423686756,-1161.8473960425613,-963.2007589218272) " id="svg_224"/>
   <g stroke="null" transform="matrix(0.5395054446492691,0,0,0.46854818423686756,-1161.8473960425613,-963.2007589218272) " id="svg_225"/>
   <g stroke="null" transform="matrix(0.5395054446492691,0,0,0.46854818423686756,-1161.8473960425613,-963.2007589218272) " id="svg_226"/>
   <g stroke="null" transform="matrix(0.5395054446492691,0,0,0.46854818423686756,-1161.8473960425613,-963.2007589218272) " id="svg_227"/>
   <g stroke="null" transform="matrix(0.5395054446492691,0,0,0.46854818423686756,-1161.8473960425613,-963.2007589218272) " id="svg_228"/>
   <g stroke="null" transform="matrix(0.5395054446492691,0,0,0.46854818423686756,-1161.8473960425613,-963.2007589218272) " id="svg_229"/>
   <g stroke="null" transform="matrix(0.5395054446492691,0,0,0.46854818423686756,-1161.8473960425613,-963.2007589218272) " id="svg_230"/>
   <g stroke="null" transform="matrix(0.5395054446492691,0,0,0.46854818423686756,-1161.8473960425613,-963.2007589218272) " id="svg_231"/>
   <g stroke="null" transform="matrix(0.5395054446492691,0,0,0.46854818423686756,-1161.8473960425613,-963.2007589218272) " id="svg_232"/>
   <g stroke="null" transform="matrix(0.5395054446492691,0,0,0.46854818423686756,-1161.8473960425613,-963.2007589218272) " id="svg_233"/>
   <g stroke="null" transform="matrix(0.5395054446492691,0,0,0.46854818423686756,-1161.8473960425613,-963.2007589218272) " id="svg_234"/>
   <g stroke="null" transform="matrix(0.5395054446492691,0,0,0.46854818423686756,-1161.8473960425613,-963.2007589218272) " id="svg_235"/>
   <g stroke="null" transform="matrix(0.5395054446492691,0,0,0.46854818423686756,-1161.8473960425613,-963.2007589218272) " id="svg_236"/>
  </g>
  <g stroke="null" transform="rotate(-93.95033264160156 224.7619171142578,188.09519958496094) " id="svg_260">
   <path stroke="null" id="svg_242" fill="#F6C358" d="m316.134401,316.750032c-36.937498,23.714362 -78.368071,37.470605 -120.691616,39.336545c-97.919187,4.374101 -144.02175,-54.225417 -155.53369,-71.660175c-2.888462,-4.391583 -4.396362,-9.847707 -3.674246,-15.27899c0.018536,-0.156415 0.037073,-0.31283 0.113636,-0.493167c0.262734,-1.519986 0.622986,-2.930482 1.121052,-4.319816c3.537238,-10.638984 13.63799,-17.056601 23.876556,-15.615742c54.697833,7.992809 259.195146,24.811107 298.971139,-162.04139l0.352998,0.086488l23.143964,3.926018l14.528545,2.447435c0.59639,1.333208 1.213734,2.734503 1.947133,4.088873c0.158769,0.31007 0.258704,0.644982 0.359446,0.978974c42.324351,112.618835 -29.089328,183.040571 -84.514918,218.544946z"/>
   <path stroke="null" id="svg_243" fill="#FCD462" d="m383.814194,90.688883c13.320452,88.747138 -47.121262,146.291315 -95.424826,177.21641c-36.937498,23.714362 -78.368071,37.470605 -120.691616,39.336545c-63.865315,2.835713 -105.698048,-21.090269 -130.228215,-42.907408c3.537238,-10.638984 13.63799,-17.056601 23.876556,-15.615742c54.697833,7.992809 259.195146,24.811107 298.971139,-162.04139l0.352998,0.086488l23.143964,3.925098z"/>
   <path stroke="null" id="svg_244" fill="#44C4A1" d="m398.358858,93.124357l-38.025507,-6.459942c2.183271,-9.525676 5.969542,-30.550619 0.938105,-58.244364c-0.890555,-4.901312 2.756289,-9.302095 7.075281,-8.439972c4.003873,0.798637 8.662968,1.394854 12.676512,1.022218c3.755645,-0.348714 6.965675,3.088737 6.723089,7.38187c-0.796261,14.099437 -0.31109,40.093777 10.612519,64.740189z"/>
   <g stroke="null" transform="matrix(0.805932501563782,0,0,0.9200885228011172,-1596.915263496781,-1726.634122192042) " id="svg_245"/>
   <g stroke="null" transform="matrix(0.805932501563782,0,0,0.9200885228011172,-1596.915263496781,-1726.634122192042) " id="svg_246"/>
   <g stroke="null" transform="matrix(0.805932501563782,0,0,0.9200885228011172,-1596.915263496781,-1726.634122192042) " id="svg_247"/>
   <g stroke="null" transform="matrix(0.805932501563782,0,0,0.9200885228011172,-1596.915263496781,-1726.634122192042) " id="svg_248"/>
   <g stroke="null" transform="matrix(0.805932501563782,0,0,0.9200885228011172,-1596.915263496781,-1726.634122192042) " id="svg_249"/>
   <g stroke="null" transform="matrix(0.805932501563782,0,0,0.9200885228011172,-1596.915263496781,-1726.634122192042) " id="svg_250"/>
   <g stroke="null" transform="matrix(0.805932501563782,0,0,0.9200885228011172,-1596.915263496781,-1726.634122192042) " id="svg_251"/>
   <g stroke="null" transform="matrix(0.805932501563782,0,0,0.9200885228011172,-1596.915263496781,-1726.634122192042) " id="svg_252"/>
   <g stroke="null" transform="matrix(0.805932501563782,0,0,0.9200885228011172,-1596.915263496781,-1726.634122192042) " id="svg_253"/>
   <g stroke="null" transform="matrix(0.805932501563782,0,0,0.9200885228011172,-1596.915263496781,-1726.634122192042) " id="svg_254"/>
   <g stroke="null" transform="matrix(0.805932501563782,0,0,0.9200885228011172,-1596.915263496781,-1726.634122192042) " id="svg_255"/>
   <g stroke="null" transform="matrix(0.805932501563782,0,0,0.9200885228011172,-1596.915263496781,-1726.634122192042) " id="svg_256"/>
   <g stroke="null" transform="matrix(0.805932501563782,0,0,0.9200885228011172,-1596.915263496781,-1726.634122192042) " id="svg_257"/>
   <g stroke="null" transform="matrix(0.805932501563782,0,0,0.9200885228011172,-1596.915263496781,-1726.634122192042) " id="svg_258"/>
   <g stroke="null" transform="matrix(0.805932501563782,0,0,0.9200885228011172,-1596.915263496781,-1726.634122192042) " id="svg_259"/>
  </g>
  <g stroke="null" id="svg_296">
   <path stroke="null" id="svg_265" fill="#70C449" d="m119.136887,231.540232c-17.168177,-5.778193 -33.449385,-0.564613 -43.798678,4.587758l-11.29625,6.951193l0.000659,0.005194c3.727182,3.975661 9.678874,6.730838 16.657288,11.603499c10.060887,0.422903 20.207802,5.023274 27.037893,12.184063c3.381096,3.544967 6.618484,9.772773 8.758945,14.420998c8.896061,-3.969725 20.935572,-7.241661 31.113139,-6.813193c4.814222,0.202919 8.334412,-2.111177 12.844408,-0.888097c4.097659,-36.630093 -17.207071,-33.936125 -41.317405,-42.051415z"/>
   <path stroke="null" id="svg_266" fill="#6AB742" d="m17.311768,267.90397l-4.133586,8.510741c12.11598,0.984919 31.768725,22.386417 30.594999,12.29016c1.229759,10.577402 1.791737,2.317064 1.649347,2.267726c5.709761,-18.256434 19.811286,-39.283625 37.899064,-38.52277c-36.409905,-25.420191 -57.66025,0.769758 -66.009824,15.454144z"/>
   <path stroke="null" id="svg_267" fill="#43A838" d="m106.625381,265.129132c-0.767982,0 -1.531349,-0.359839 -2.074539,-1.063935c-0.995739,-1.288742 -0.874115,-3.241887 0.270936,-4.362209c0.421895,-0.413258 10.580017,-10.106273 31.478013,-8.843128c1.515198,0.091629 2.678047,1.547677 2.596964,3.253758c-0.081742,1.705339 -1.372479,3.004467 -2.890972,2.922484c-18.700185,-1.124032 -27.49242,7.250193 -27.579106,7.334773c-0.519788,0.508968 -1.16186,0.758258 -1.801296,0.758258z"/>
   <path stroke="null" id="svg_268" fill="#B0E046" d="m86.691152,315.193078c8.015354,-14.988208 23.039775,-29.230029 30.936141,-38.238238c-6.465218,-14.036676 -19.2648,-23.871772 -34.305701,-24.505014c-18.087777,-0.761597 -33.83832,12.007854 -39.548411,30.264287c24.362813,14.855402 40.781466,48.742559 42.917971,32.478964z"/>
   <path stroke="null" id="svg_269" fill="#A0C638" d="m63.263431,284.033646c-0.611089,0 -1.225804,-0.228145 -1.735375,-0.696306c-1.176033,-1.079516 -1.351384,-3.027838 -0.391572,-4.35108c3.592044,-4.953903 10.151199,-11.07487 20.999845,-12.10245c1.515527,-0.143935 2.841532,1.120322 2.968759,2.822322c0.127228,1.702 -0.995739,3.197371 -2.507971,3.340564c-7.168267,0.6785 -12.956474,3.992725 -17.202786,9.849934c-0.54385,0.748613 -1.333915,1.137016 -2.130901,1.137016z"/>
   <path stroke="null" id="svg_270" fill="#4BAA3D" d="m83.435306,393.682424c12.176627,-19.627901 -2.268018,-26.126513 1.00299,-42.318141c4.579213,-22.665385 7.87659,-28.555981 -1.601225,-41.196334c0,0 -18.694252,-30.38411 -71.784847,-33.910158c-0.887628,-0.010758 -4.037671,0.254113 -4.663263,4.467564c-0.363555,3.103145 -0.605156,6.251548 -0.71096,9.442241c-0.045815,1.375177 -0.059329,2.743306 -0.056363,4.107354c1.015845,13.367079 3.90517,32.117271 11.710235,49.530124c13.907057,27.446045 38.971601,46.947818 68.516146,50.407462c0.281483,-0.012242 0.564615,-0.013355 0.843791,-0.031161c-1.092973,-0.144677 -2.179354,-0.30679 -3.256505,-0.498952z"/>
   <path stroke="null" id="svg_271" fill="#43A838" d="m114.361559,260.423035c-0.2505,0 -0.504626,-0.038581 -0.756775,-0.119823c-1.458835,-0.469645 -2.303285,-2.18129 -1.886004,-3.823193l3.267053,-12.860708c0.416622,-1.642274 1.938741,-2.593435 3.396917,-2.123048c1.459165,0.469645 2.303945,2.18129 1.886664,3.823564l-3.267053,12.860708c-0.345097,1.357 -1.445651,2.2425 -2.640802,2.2425z"/>
   <path stroke="null" id="svg_272" opacity="0.15" fill="#231F20" d="m23.650747,346.446736c-8.109951,-18.094321 -11.112,-37.577544 -12.168057,-51.466946c-0.002966,-1.417468 0.010547,-2.839387 0.05867,-4.267983c0.110418,-3.315338 0.361248,-6.587273 0.739306,-9.811725c0.396845,-2.669113 1.767346,-3.811322 2.986558,-4.295806c-1.381378,-0.132806 -2.783521,-0.251145 -4.214669,-0.346484c-0.887628,-0.010758 -4.037671,0.254113 -4.663263,4.467564c-0.363555,3.103145 -0.605156,6.251548 -0.71096,9.442241c-0.045815,1.375177 -0.059329,2.743306 -0.056363,4.107354c1.015845,13.367079 3.90517,32.117271 11.710235,49.530124c9.680193,19.105208 24.768887,34.358658 43.009931,43.033366c-15.365893,-9.350612 -28.085051,-23.406949 -36.691388,-40.391705z"/>
   <path stroke="null" id="svg_273" fill="#43A838" d="m171.002667,280.73463c-0.884332,-3.05158 -2.71727,-4.387806 -3.824746,-4.934983c-6.514988,-2.554855 -13.469011,-4.086209 -20.722646,-4.391145c-39.240559,-1.651177 -72.242669,32.814319 -73.711722,76.978395c-0.551101,16.593014 3.4279,32.194803 10.692083,45.295898c3.087418,0.550145 6.230868,0.923339 9.433318,1.057629c17.920997,0.754548 34.663323,-5.307435 48.256267,-16.124853l5.995859,-5.277758c15.947317,-15.486418 26.352972,-38.103206 27.202037,-63.660655c0.335539,-10.073999 -0.857964,-19.808933 -3.320449,-28.942529z"/>
   <path stroke="null" id="svg_274" opacity="0.15" fill="#231F20" d="m78.606581,349.408171c1.423238,-42.274737 31.717636,-75.772379 69.003304,-77.939201c-0.38432,-0.023 -0.768641,-0.044516 -1.154609,-0.060468c-39.240559,-1.651177 -72.242669,32.814319 -73.711722,76.978395c-0.551101,16.593014 3.4279,32.194803 10.692083,45.295898c1.870843,0.3335 3.765087,0.592064 5.677789,0.781258c-7.15706,-13.099612 -11.060252,-28.595303 -10.506844,-45.055882z"/>
   <g stroke="null" transform="matrix(0.3296057991189403,0,0,0.3709677025233051,-41.3914656115518,-1518.6986700323341) " id="svg_275">
    <path stroke="null" id="svg_276" fill="#368C2A" d="m346.289251,5058.058819c-1.031,0 -2.08,-0.192 -3.095,-0.599c-72.252,-28.924 -108.649,-78.071 -110.164,-80.149c-2.711,-3.721 -1.892,-8.935 1.829,-11.647c3.719,-2.711 8.932,-1.893 11.644,1.825c0.535,0.724 35.494,47.512 102.888,74.492c4.274,1.711 6.352,6.563 4.64,10.837c-1.304,3.259 -4.435,5.241 -7.742,5.241z"/>
    <path stroke="null" id="svg_277" fill="#368C2A" d="m311.273251,5041.040819c-3.867,0 -7.333,-2.704 -8.153,-6.639l-14.255,-68.431c-0.939,-4.507 1.954,-8.922 6.461,-9.861c4.511,-0.935 8.922,1.954 9.861,6.462l14.256,68.431c0.939,4.507 -1.954,8.922 -6.461,9.861c-0.573,0.12 -1.146,0.177 -1.709,0.177z"/>
    <path stroke="null" id="svg_278" fill="#368C2A" d="m398.006251,5138.616819c-2.97,0 -5.844,-1.591 -7.349,-4.389c-2.181,-4.055 -0.66,-9.11 3.394,-11.289c132.471,-71.222 170.905,-186.989 171.278,-188.151c1.408,-4.384 6.104,-6.798 10.486,-5.388c4.384,1.407 6.796,6.101 5.389,10.486c-0.406,1.265 -10.258,31.437 -37.329,71.015c-24.88,36.376 -69.7,87.89 -141.928,126.722c-1.256,0.673 -2.609,0.994 -3.941,0.994z"/>
    <path stroke="null" id="svg_279" fill="#368C2A" d="m464.661251,5093.765819c-2.533,0 -5.034,-1.151 -6.669,-3.337c-1.414,-1.885 -34.456,-46.932 -24.077,-111.774c0.727,-4.546 5.006,-7.646 9.55,-6.913c4.546,0.727 7.641,5.003 6.913,9.549c-9.225,57.63 20.669,98.755 20.971,99.164c2.738,3.691 1.975,8.912 -1.711,11.657c-1.496,1.115 -3.245,1.654 -4.977,1.654z"/>
    <path stroke="null" id="svg_280" fill="#368C2A" d="m529.180251,5029.719819c-3.97,0 -7.488,-2.846 -8.199,-6.893c-0.798,-4.534 2.232,-8.856 6.767,-9.653l44.074,-7.751c4.53,-0.795 8.856,2.232 9.653,6.767c0.797,4.534 -2.233,8.856 -6.767,9.654l-44.074,7.751c-0.488,0.084 -0.973,0.125 -1.454,0.125z"/>
   </g>
   <g stroke="null" transform="matrix(0.3296057991189403,0,0,0.3709677025233051,-41.3914656115518,-1518.6986700323341) " id="svg_281"/>
   <g stroke="null" transform="matrix(0.3296057991189403,0,0,0.3709677025233051,-41.3914656115518,-1518.6986700323341) " id="svg_282"/>
   <g stroke="null" transform="matrix(0.3296057991189403,0,0,0.3709677025233051,-41.3914656115518,-1518.6986700323341) " id="svg_283"/>
   <g stroke="null" transform="matrix(0.3296057991189403,0,0,0.3709677025233051,-41.3914656115518,-1518.6986700323341) " id="svg_284"/>
   <g stroke="null" transform="matrix(0.3296057991189403,0,0,0.3709677025233051,-41.3914656115518,-1518.6986700323341) " id="svg_285"/>
   <g stroke="null" transform="matrix(0.3296057991189403,0,0,0.3709677025233051,-41.3914656115518,-1518.6986700323341) " id="svg_286"/>
   <g stroke="null" transform="matrix(0.3296057991189403,0,0,0.3709677025233051,-41.3914656115518,-1518.6986700323341) " id="svg_287"/>
   <g stroke="null" transform="matrix(0.3296057991189403,0,0,0.3709677025233051,-41.3914656115518,-1518.6986700323341) " id="svg_288"/>
   <g stroke="null" transform="matrix(0.3296057991189403,0,0,0.3709677025233051,-41.3914656115518,-1518.6986700323341) " id="svg_289"/>
   <g stroke="null" transform="matrix(0.3296057991189403,0,0,0.3709677025233051,-41.3914656115518,-1518.6986700323341) " id="svg_290"/>
   <g stroke="null" transform="matrix(0.3296057991189403,0,0,0.3709677025233051,-41.3914656115518,-1518.6986700323341) " id="svg_291"/>
   <g stroke="null" transform="matrix(0.3296057991189403,0,0,0.3709677025233051,-41.3914656115518,-1518.6986700323341) " id="svg_292"/>
   <g stroke="null" transform="matrix(0.3296057991189403,0,0,0.3709677025233051,-41.3914656115518,-1518.6986700323341) " id="svg_293"/>
   <g stroke="null" transform="matrix(0.3296057991189403,0,0,0.3709677025233051,-41.3914656115518,-1518.6986700323341) " id="svg_294"/>
   <g stroke="null" transform="matrix(0.3296057991189403,0,0,0.3709677025233051,-41.3914656115518,-1518.6986700323341) " id="svg_295"/>
  </g>
 </g>
</svg>